<?xml version="1.0" encoding="UTF-8"?>
<svg width="800px" height="1000px" viewBox="0 0 800 1000" version="1.1" xmlns="http://www.w3.org/2000/svg" xmlns:xlink="http://www.w3.org/1999/xlink">
    <!-- Generator: Sketch 64 (93537) - https://sketch.com -->
    <title>Artboard</title>
    <desc>Created with Sketch.</desc>
    <defs></defs>
    <g id="Artboard" stroke="none" stroke-width="1" fill="none" fill-rule="evenodd">
        <g id="Alienation" transform="translate(000.000000, 000.000000)" fill="#000" fill-rule="nonzero">
            <path class="cls-1" d="M672.413766,518.401899 C678.240068,518.401899 682.671469,519.790666 685.707969,522.568201 C688.745229,525.346489 690.264241,529.390098 690.264241,534.700535 C690.264241,540.010971 688.745229,544.05458 685.707969,546.832115 C682.671469,549.610403 678.240068,550.998418 672.413766,550.998418 C666.587463,550.998418 662.155301,549.610403 659.118802,546.832115 C656.082302,544.05458 654.563291,540.010971 654.563291,534.700535 C654.563291,529.390098 656.082302,525.346489 659.118802,522.568201 C662.155301,519.790666 666.587463,518.401899 672.413766,518.401899 Z M623.323414,510.123418 C624.105005,510.123418 624.65136,510.278625 624.960202,510.588278 C625.269044,510.897931 625.423086,511.403876 625.423086,512.105351 L625.423086,512.105351 L625.423086,518.794472 L646.919107,518.794472 C647.700698,518.794472 648.247052,518.948918 648.555895,519.258571 C648.864737,519.568225 649.018778,520.074169 649.018778,520.775644 L649.018778,520.775644 L649.018778,540.903871 C649.018778,541.606107 649.081002,542.080098 649.203932,542.328125 C649.327621,542.575391 649.534021,542.699404 649.822375,542.699404 C650.192682,542.699404 650.449165,542.554849 650.594101,542.265737 C650.738278,541.977387 650.89232,541.316996 651.057744,540.284565 C651.139697,539.582329 651.220891,539.160074 651.304362,539.014758 C651.386315,538.870202 651.551739,538.797924 651.798358,538.797924 L651.798358,538.797924 L652.848573,538.797924 C653.09595,538.797924 653.27048,538.94248 653.373681,539.231591 C653.476122,539.520703 653.528481,540.015996 653.528481,540.717471 C653.528481,544.021708 652.642931,546.560561 650.87259,548.335551 C649.10149,550.111303 646.568529,550.998418 643.274466,550.998418 C640.103332,550.998418 637.662948,550.09989 635.954831,548.304358 C634.245196,546.508064 633.391517,543.938018 633.391517,540.593457 L633.391517,540.593457 L633.391517,526.411791 C633.391517,524.966996 633.185116,523.863048 632.773833,523.098425 C632.399731,522.405319 631.7221,521.75634 630.771291,521.147685 L630.771291,521.147685 L625.423086,521.147685 L625.423086,540.593457 C625.423086,541.420468 625.53691,541.977387 625.763798,542.265737 C625.98917,542.554849 626.411836,542.699404 627.02952,542.699404 C627.523516,542.699404 627.883958,542.535067 628.110088,542.204111 C628.336218,541.873916 628.531996,541.234828 628.69742,540.284565 C628.779373,539.624174 628.87195,539.211049 628.97515,539.045951 C629.077591,538.880854 629.25288,538.797924 629.500257,538.797924 L629.500257,538.797924 L630.488249,538.797924 C630.735626,538.797924 630.910156,538.94248 631.014115,539.231591 C631.115798,539.520703 631.168157,540.015996 631.168157,540.717471 C631.168157,544.021708 630.26136,546.560561 628.450801,548.335551 C626.637966,550.111303 624.064028,550.998418 620.728988,550.998418 C617.269501,550.998418 614.582498,550.048916 612.66798,548.149911 C610.752704,546.250907 609.795824,543.588041 609.795824,540.160551 L609.795824,540.160551 L609.795824,521.147685 L606.151183,521.147685 C605.657946,521.147685 605.40981,520.941503 605.40981,520.528378 L605.40981,520.528378 L605.40981,519.413018 C605.40981,519.000654 605.657946,518.794472 606.151183,518.794472 L606.151183,518.794472 L606.39856,518.794472 C608.333566,518.794472 609.754089,518.608071 610.660127,518.236791 C611.566165,517.864751 612.276426,517.225663 612.791669,516.316484 C613.306153,515.408827 613.789525,514.005116 614.243303,512.105351 C614.407209,511.321708 614.66521,510.795221 615.015788,510.525891 C615.364848,510.258083 615.889955,510.123418 616.590352,510.123418 L616.590352,510.123418 Z M586.375159,518.401899 C591.634699,518.401899 595.630465,519.667973 598.363215,522.200874 C601.095965,524.733775 602.461961,528.449952 602.461961,533.352414 L602.461961,533.352414 L602.461961,541.011335 C602.461961,541.706095 602.524809,542.175039 602.647476,542.420426 C602.7709,542.665813 602.976103,542.787753 603.26384,542.787753 C603.633356,542.787753 603.900649,542.625166 604.065719,542.297733 C604.229276,541.971805 604.373144,541.338768 604.496569,540.398621 C604.578347,539.704614 604.660125,539.286102 604.74266,539.142332 C604.825195,539.000069 604.989508,538.927807 605.236357,538.927807 L605.236357,538.927807 L606.28357,538.927807 C606.531176,538.927807 606.705333,539.071577 606.808313,539.356858 C606.910535,539.642891 606.962025,540.113341 606.962025,540.765949 C606.962025,544.034257 606.108656,546.55662 604.40419,548.333038 C602.698209,550.110209 600.263797,550.998418 597.099441,550.998418 C592.949205,550.998418 589.990809,549.304046 588.224251,545.913045 C587.278503,547.669892 586.118467,548.95629 584.741869,549.77299 C583.364515,550.589691 581.669892,550.998418 579.656486,550.998418 C576.821514,550.998418 574.540815,550.303658 572.815147,548.91489 C571.089479,547.526875 570.226266,545.688734 570.226266,543.40122 C570.226266,541.399738 570.935009,539.816016 572.353252,538.652312 C573.770738,537.487855 575.959058,536.702016 578.917455,536.293289 C586.477381,535.313248 590.258102,532.474743 590.258102,527.776268 C590.258102,525.898232 589.600848,524.274616 588.286342,522.90542 C586.971078,521.536976 585.408966,520.852754 583.60152,520.852754 C582.739064,520.852754 582.306701,521.138787 582.306701,521.710101 C582.306701,521.915593 582.368792,522.11958 582.491459,522.323567 C584.217884,522.323567 585.636128,522.834664 586.745432,523.854599 C587.854736,524.876792 588.409009,526.183513 588.409009,527.776268 C588.409009,529.655808 587.617731,531.207163 586.035931,532.433343 C584.453375,533.658771 582.430125,534.271484 579.965426,534.271484 C577.458323,534.271484 575.465361,533.648985 573.985784,532.402482 C572.506965,531.156731 571.767176,529.512792 571.767176,527.469911 C571.767176,524.733775 573.102127,522.53734 575.773543,520.883615 C578.444202,519.229137 581.978074,518.401899 586.375159,518.401899 Z M562.542211,518.919304 C563.328516,518.919304 563.878167,519.073151 564.188872,519.381604 C564.498814,519.690057 564.654548,520.194041 564.654548,520.892797 L564.654548,520.892797 L564.654548,540.943001 C564.654548,541.642515 564.716384,542.114668 564.840819,542.361733 C564.965254,542.608041 565.172136,542.731574 565.462229,542.731574 C565.835534,542.731574 566.093564,542.587578 566.238611,542.299588 C566.383657,542.012355 566.539392,541.354524 566.705814,540.326095 C566.787498,539.626581 566.869945,539.205963 566.95392,539.06121 C567.036367,538.917215 567.202026,538.845217 567.450896,538.845217 L567.450896,538.845217 L568.507446,538.845217 C568.755552,538.845217 568.931898,538.989212 569.034958,539.277203 C569.138017,539.565194 569.191456,540.058567 569.191456,540.757323 C569.191456,544.048751 568.2998,546.577763 566.51878,548.345873 C564.737759,550.114742 562.189518,550.998418 558.875583,550.998418 C555.684556,550.998418 553.230214,550.103373 551.511029,548.314801 C549.791844,546.52547 548.932252,543.965386 548.932252,540.63379 L548.932252,540.63379 L548.932252,526.507096 C548.932252,525.067902 548.724606,523.968233 548.311605,523.206573 C547.896313,522.445672 547.13062,521.736306 546.01147,521.077717 C545.72214,520.914017 545.545794,520.780632 545.483958,520.676804 C545.422122,520.575249 545.390823,520.441106 545.390823,520.275891 L545.390823,520.275891 L545.390823,519.535452 C545.390823,519.124687 545.638929,518.919304 546.135905,518.919304 L546.135905,518.919304 Z M370.002966,518.401899 C372.75631,518.401899 375.232503,518.830939 377.430786,519.689019 C379.629069,520.5471 381.365432,521.772499 382.639876,523.365217 C383.913563,524.957934 384.550406,526.796033 384.550406,528.879513 C384.550406,531.535046 383.584918,533.730678 381.653185,535.466409 C379.721453,537.202893 377.277065,538.070006 374.318507,538.070006 C371.35995,538.070006 368.955696,537.089988 367.106503,535.129198 C366.859641,535.129198 366.643826,535.221028 366.459058,535.404687 C366.274291,535.588347 366.181907,535.823943 366.181907,536.109217 C366.181907,537.049342 366.983072,537.917207 368.585403,538.713566 C370.188492,539.509925 371.976348,539.908104 373.948214,539.908104 C377.852571,539.908104 381.057233,538.601413 383.564473,535.987279 C383.811335,535.741898 383.984744,535.588347 384.088486,535.527378 C384.190714,535.466409 384.344435,535.435548 384.550406,535.435548 L384.550406,535.435548 L385.290235,535.435548 C385.577231,535.435548 385.773357,535.537916 385.875585,535.741898 C385.977813,535.946633 386.030063,536.314704 386.030063,536.844607 C386.030063,539.378202 385.34097,541.716095 383.965055,543.860543 C382.588383,546.004992 380.636205,547.730938 378.109277,549.037629 C375.58235,550.34432 372.75631,550.998418 369.633431,550.998418 C366.305338,550.998418 363.305132,550.324749 360.63357,548.97666 C357.962009,547.62857 355.836421,545.70918 354.254536,543.216983 C352.671893,540.726292 351.881329,537.886346 351.881329,534.700158 C351.881329,531.555369 352.620401,528.756822 354.100815,526.306024 C355.579715,523.855226 357.684857,521.925297 360.418513,520.516239 C363.151411,519.107181 366.345472,518.401899 370.002966,518.401899 Z M220.20136,518.401899 C226.027786,518.401899 230.459282,519.790666 233.496607,522.568201 C236.533172,525.346489 238.052215,529.390098 238.052215,534.700535 C238.052215,540.010971 236.533172,544.05458 233.496607,546.832115 C230.459282,549.610403 226.027786,550.998418 220.20136,550.998418 C214.375695,550.998418 209.943438,549.610403 206.906874,546.832115 C203.869548,544.05458 202.351266,540.010971 202.351266,534.700535 C202.351266,529.390098 203.869548,525.346489 206.906874,522.568201 C209.943438,519.790666 214.375695,518.401899 220.20136,518.401899 Z M255.471266,510.123418 C256.253853,510.123418 256.800905,510.277864 257.110141,510.587517 C257.419377,510.897171 257.573616,511.403876 257.573616,512.10459 L257.573616,512.10459 L257.573616,518.793711 L263.696795,518.793711 C264.191421,518.793711 264.439873,519.000654 264.439873,519.413018 L264.439873,519.413018 L264.439873,520.527617 C264.439873,520.940742 264.191421,521.146924 263.696795,521.146924 L263.696795,521.146924 L257.573616,521.146924 L257.573616,540.593457 C257.573616,541.419707 257.687585,541.977387 257.914763,542.265737 C258.140422,542.554849 258.563627,542.698643 259.182099,542.698643 C259.676725,542.698643 260.037627,542.535067 260.264046,542.204111 C260.490465,541.873916 260.686491,541.234067 260.852126,540.283804 C260.934184,539.623418 261.026879,539.210288 261.130211,539.045191 C261.232783,538.880854 261.408296,538.797164 261.655988,538.797164 L261.655988,538.797164 L262.64524,538.797164 C262.892933,538.797164 263.067686,538.94248 263.171777,539.23083 C263.27359,539.520703 263.326015,540.015996 263.326015,540.717471 C263.326015,544.020947 262.418062,546.560561 260.605193,548.33479 C258.790046,550.110542 256.212825,550.998418 252.87353,550.998418 C249.40963,550.998418 246.719199,550.048916 244.802239,548.149151 C242.884519,546.250146 241.926419,543.58728 241.926419,540.15979 L241.926419,540.15979 L241.926419,521.146924 L238.277129,521.146924 C237.783263,521.146924 237.53481,520.940742 237.53481,520.527617 L237.53481,520.527617 L237.53481,519.413018 C237.53481,519.000654 237.783263,518.793711 238.277129,518.793711 L238.277129,518.793711 L238.524822,518.793711 C240.462296,518.793711 241.88463,518.608071 242.791824,518.236031 C243.699018,517.864751 244.410186,517.224902 244.926086,516.316484 C245.441226,515.408827 245.925215,514.004355 246.379571,512.10459 C246.543687,511.320947 246.802017,510.79446 247.153042,510.525891 C247.502547,510.257322 248.028324,510.123418 248.729614,510.123418 L248.729614,510.123418 Z M130.690284,518.401899 C136.51671,518.401899 140.948206,519.790666 143.985532,522.568201 C147.022096,525.346489 148.541139,529.390098 148.541139,534.700535 C148.541139,540.010971 147.022096,544.05458 143.985532,546.832115 C140.948206,549.610403 136.51671,550.998418 130.690284,550.998418 C124.864619,550.998418 120.432362,549.610403 117.395798,546.832115 C114.358472,544.05458 112.84019,540.010971 112.84019,534.700535 C112.84019,529.390098 114.358472,525.346489 117.395798,522.568201 C120.432362,519.790666 124.864619,518.401899 130.690284,518.401899 Z M494.794463,518.401899 C500.054003,518.401899 504.049769,519.667973 506.782519,522.200874 C509.515269,524.733775 510.881265,528.449952 510.881265,533.352414 L510.881265,533.352414 L510.881265,541.011335 C510.881265,541.706095 510.944113,542.175039 511.06678,542.420426 C511.190204,542.665813 511.395406,542.787753 511.683144,542.787753 C512.05266,542.787753 512.319953,542.625166 512.485023,542.297733 C512.648579,541.971805 512.792448,541.338768 512.915872,540.398621 C512.99765,539.704614 513.079428,539.286102 513.161964,539.142332 C513.244499,539.000069 513.408812,538.927807 513.655661,538.927807 L513.655661,538.927807 L514.702874,538.927807 C514.95048,538.927807 515.124637,539.071577 515.227617,539.356858 C515.329839,539.642891 515.381329,540.113341 515.381329,540.765949 C515.381329,544.034257 514.52796,546.55662 512.823493,548.333038 C511.117513,550.110209 508.683101,550.998418 505.518745,550.998418 C501.368509,550.998418 498.410112,549.304046 496.643555,545.913045 C495.697807,547.669892 494.53777,548.95629 493.161173,549.77299 C491.783819,550.589691 490.089196,550.998418 488.07579,550.998418 C485.240818,550.998418 482.960119,550.303658 481.234451,548.91489 C479.508782,547.526875 478.64557,545.688734 478.64557,543.40122 C478.64557,541.399738 479.354313,539.816016 480.772556,538.652312 C482.190042,537.487855 484.378362,536.702016 487.336759,536.293289 C494.896685,535.313248 498.677405,532.474743 498.677405,527.776268 C498.677405,525.898232 498.020152,524.274616 496.705646,522.90542 C495.390382,521.536976 493.82827,520.852754 492.020824,520.852754 C491.158368,520.852754 490.726005,521.138787 490.726005,521.710101 C490.726005,521.915593 490.788095,522.11958 490.910762,522.323567 C492.637188,522.323567 494.055431,522.834664 495.164735,523.854599 C496.27404,524.876792 496.828313,526.183513 496.828313,527.776268 C496.828313,529.655808 496.037035,531.207163 494.455235,532.433343 C492.872678,533.658771 490.849429,534.271484 488.384729,534.271484 C485.877626,534.271484 483.884665,533.648985 482.405088,532.402482 C480.926269,531.156731 480.18648,529.512792 480.18648,527.469911 C480.18648,524.733775 481.521431,522.53734 484.192847,520.883615 C486.863506,519.229137 490.397378,518.401899 494.794463,518.401899 Z M105.183094,505.984177 C105.966211,505.984177 106.513633,506.138501 106.822319,506.445637 C107.131764,506.754285 107.286867,507.257352 107.286867,507.954836 L107.286867,507.954836 L107.286867,540.961295 C107.286867,541.659536 107.349212,542.13083 107.473143,542.377446 C107.596313,542.624062 107.802356,542.746614 108.091273,542.746614 C108.462304,542.746614 108.730693,542.583212 108.89644,542.254138 C109.060666,541.926578 109.205885,541.290369 109.329055,540.345511 C109.411169,539.64727 109.494042,539.227418 109.576916,539.082928 C109.659029,538.939195 109.824016,538.867328 110.072637,538.867328 L110.072637,538.867328 L111.124143,538.867328 C111.372004,538.867328 111.546875,539.011818 111.650277,539.298528 C111.752918,539.585994 111.80538,540.058801 111.80538,540.714679 C111.80538,543.999363 110.948512,546.534364 109.236298,548.319683 C107.524083,550.105758 105.078931,550.998418 101.902363,550.998418 C97.7761694,550.998418 94.8056445,549.295556 92.9907884,545.887565 C91.1744117,549.295556 88.3688737,550.998418 84.572654,550.998418 C80.9421814,550.998418 78.1062311,549.530825 76.0632825,546.59564 C74.0210942,543.661212 73,539.585994 73,534.372259 C73,529.281831 74.0309782,525.320087 76.0944551,522.487028 C78.1571718,519.654726 81.0455833,518.238575 84.7596898,518.238575 C87.8115677,518.238575 90.2057788,519.100218 91.9385216,520.825018 L91.9385216,520.825018 L91.9385216,513.558165 C91.9385216,512.121589 91.7317177,511.02392 91.3196306,510.263647 C90.9067831,509.504886 90.1434335,508.796811 89.0295817,508.13942 C88.7406645,507.976018 88.5650333,507.842119 88.502688,507.739236 C88.441103,507.63711 88.4099304,507.503211 88.4099304,507.339053 L88.4099304,507.339053 L88.4099304,506.599961 C88.4099304,506.189943 88.6585512,505.984177 89.153512,505.984177 L89.153512,505.984177 Z M419.765372,505.984177 C420.54849,505.984177 421.095912,506.138501 421.404597,506.445637 C421.714043,506.754285 421.869145,507.257352 421.869145,507.954836 L421.869145,507.954836 L421.869145,540.961295 C421.869145,541.659536 421.931491,542.13083 422.055421,542.377446 C422.178591,542.624062 422.384635,542.746614 422.673552,542.746614 C423.044582,542.746614 423.312971,542.583212 423.478718,542.254138 C423.642945,541.926578 423.788164,541.290369 423.911334,540.345511 C423.993447,539.64727 424.076321,539.227418 424.159194,539.082928 C424.241308,538.939195 424.406295,538.867328 424.654915,538.867328 L424.654915,538.867328 L425.706422,538.867328 C425.954282,538.867328 426.129153,539.011818 426.232555,539.298528 C426.335197,539.585994 426.387658,540.058801 426.387658,540.714679 C426.387658,543.999363 425.530791,546.534364 423.818576,548.319683 C422.106362,550.105758 419.66121,550.998418 416.484641,550.998418 C412.358448,550.998418 409.387923,549.295556 407.573067,545.887565 C405.75669,549.295556 402.951152,550.998418 399.154932,550.998418 C395.52446,550.998418 392.68851,549.530825 390.645561,546.59564 C388.603373,543.661212 387.582278,539.585994 387.582278,534.372259 C387.582278,529.281831 388.613257,525.320087 390.676734,522.487028 C392.73945,519.654726 395.627862,518.238575 399.341968,518.238575 C402.393846,518.238575 404.788057,519.100218 406.5208,520.825018 L406.5208,520.825018 L406.5208,513.558165 C406.5208,512.121589 406.313996,511.02392 405.901909,510.263647 C405.489062,509.504886 404.725712,508.796811 403.61186,508.13942 C403.322943,507.976018 403.147312,507.842119 403.084966,507.739236 C403.023382,507.63711 402.992209,507.503211 402.992209,507.339053 L402.992209,507.339053 L402.992209,506.599961 C402.992209,506.189943 403.24083,505.984177 403.73579,505.984177 L403.73579,505.984177 Z M333.784967,518.401899 C336.537493,518.401899 339.014388,518.830939 341.212622,519.689019 C343.410099,520.5471 345.146424,521.772499 346.42084,523.365217 C347.694498,524.957934 348.331327,526.796033 348.331327,528.879513 C348.331327,531.535046 347.365861,533.730678 345.434928,535.466409 C343.502481,537.202893 341.058904,538.070006 338.100413,538.070006 C335.141164,538.070006 332.73772,537.089988 330.887811,535.129198 C330.641712,535.129198 330.425902,535.221028 330.241138,535.404687 C330.056374,535.588347 329.963992,535.823943 329.963992,536.109217 C329.963992,537.049342 330.764383,537.917207 332.367436,538.713566 C333.970488,539.509925 335.757548,539.908104 337.729371,539.908104 C341.633641,539.908104 344.838989,538.601413 347.346173,535.987279 C347.592272,535.741898 347.766435,535.588347 347.869418,535.527378 C347.971644,535.466409 348.126118,535.435548 348.331327,535.435548 L348.331327,535.435548 L349.071897,535.435548 C349.358886,535.435548 349.554251,535.537916 349.657234,535.741898 C349.75946,535.946633 349.811709,536.314704 349.811709,536.844607 C349.811709,539.378202 349.122631,541.716095 347.746747,543.860543 C346.369348,546.004992 344.417213,547.730938 341.891099,549.037629 C339.36347,550.34432 336.537493,550.998418 333.41544,550.998418 C330.086663,550.998418 327.086524,550.324749 324.415779,548.97666 C321.744277,547.62857 319.617979,545.70918 318.036886,543.216983 C316.454278,540.726292 315.662975,537.886346 315.662975,534.700158 C315.662975,531.555369 316.402787,528.756822 317.882411,526.306024 C319.362036,523.855226 321.467131,521.925297 324.199969,520.516239 C326.932807,519.107181 330.126796,518.401899 333.784967,518.401899 Z M717.898954,518.401899 C720.850298,518.401899 723.104408,519.286333 724.662796,521.054443 C726.220428,522.823311 727,525.332618 727,528.580848 L727,528.580848 L727,548.506762 C727,549.206276 726.845899,549.710259 726.538451,550.018712 C726.231004,550.327165 725.687117,550.481013 724.909056,550.481013 L724.909056,550.481013 L713.840952,550.481013 C713.062135,550.481013 712.519004,550.327165 712.211556,550.018712 C711.903353,549.710259 711.750008,549.206276 711.750008,548.506762 L711.750008,548.506762 L711.750008,527.284891 C711.750008,526.833201 711.647273,526.462602 711.44256,526.174612 C711.237092,525.887379 710.950796,525.743384 710.581405,525.743384 C710.089641,525.743384 709.740647,525.907841 709.536689,526.235999 L709.536689,526.235999 L709.536689,548.506762 C709.536689,549.206276 709.382587,549.710259 709.07514,550.018712 C708.767693,550.327165 708.223806,550.481013 707.445745,550.481013 L707.445745,550.481013 L696.37764,550.481013 C695.598069,550.481013 695.055692,550.327165 694.74749,550.018712 C694.440042,549.710259 694.286696,549.206276 694.286696,548.506762 L694.286696,548.506762 L694.286696,526.73013 C694.286696,525.290935 694.081228,524.191266 693.671802,523.429607 C693.26162,522.668706 692.503955,521.95934 691.39654,521.300751 C691.110244,521.137051 690.935747,521.003666 690.87456,520.899838 C690.811862,520.798283 690.781646,520.66414 690.781646,520.498925 L690.781646,520.498925 L690.781646,519.759244 C690.781646,519.348478 691.027906,519.142338 691.51967,519.142338 L691.51967,519.142338 L701.234855,519.142338 C703.243461,519.142338 704.85246,519.502326 706.061854,520.221544 C707.271248,520.941521 708.100676,522.06241 708.552404,523.583455 C709.495142,521.897952 710.775543,520.612605 712.395874,519.728171 C714.014693,518.843737 715.848802,518.401899 717.898954,518.401899 Z M448.08755,518.919304 C450.872192,518.919304 452.928798,519.136829 454.260386,519.571115 C455.590466,520.006165 456.633858,520.762541 457.392071,521.839479 C458.148775,522.916418 458.875302,524.510837 459.572405,526.623499 L459.572405,526.623499 L465.467607,544.640662 C465.672061,544.848264 465.918009,544.951302 466.204696,544.951302 C466.818811,544.951302 467.125869,544.599446 467.125869,543.894971 C467.125869,543.522508 466.962155,542.83864 466.634728,541.844895 L466.634728,541.844895 L461.107693,524.758892 C460.820251,523.84834 460.575058,523.165236 460.36985,522.708815 C460.165396,522.253921 459.940573,521.86085 459.694625,521.528075 C459.326458,521.073181 459.090318,520.773226 458.988468,520.627446 C458.886619,520.483193 458.834562,520.307647 458.834562,520.099281 L458.834562,520.099281 L458.834562,519.540585 C458.834562,519.126906 459.081264,518.919304 459.572405,518.919304 L459.572405,518.919304 L476.951708,518.919304 C478.425886,518.919304 479.162975,519.458155 479.162975,520.53433 C479.162975,522.357723 476.460567,530.123741 471.056506,543.833148 C470.154949,546.111435 469.428423,547.653953 468.876172,548.461466 C468.323167,549.26898 467.709052,549.807831 467.033827,550.076493 C466.357848,550.346682 465.344633,550.481013 463.99343,550.481013 L463.99343,550.481013 L454.781705,550.481013 C453.348267,550.481013 452.264136,550.24288 451.527047,549.766615 C450.789958,549.29035 450.196213,548.430936 449.745811,547.18761 L449.745811,547.18761 L441.332286,524.324605 C441.087092,523.620893 440.749857,523.040827 440.319071,522.58517 C439.889794,522.129512 439.244747,521.63264 438.384685,521.093789 C437.976532,520.844971 437.77057,520.576309 437.77057,520.286276 L437.77057,520.286276 L437.77057,519.540585 C437.77057,519.126906 438.016517,518.919304 438.507658,518.919304 L438.507658,518.919304 Z M189.628195,518.401899 C192.5796,518.401899 194.834513,519.286312 196.392178,521.05438 C197.949842,522.823207 198.72943,525.332455 198.72943,528.580608 L198.72943,528.580608 L198.72943,548.506808 C198.72943,549.206306 198.575326,549.709519 198.268627,550.017965 C197.960418,550.326411 197.417275,550.481013 196.638443,550.481013 L196.638443,550.481013 L185.570108,550.481013 C184.791275,550.481013 184.248132,550.326411 183.940678,550.017965 C183.632469,549.709519 183.47912,549.206306 183.47912,548.506808 L183.47912,548.506808 L183.47912,527.285439 C183.47912,526.833001 183.376383,526.46317 183.171666,526.175186 C182.966193,525.887202 182.679891,525.74321 182.310493,525.74321 C181.818718,525.74321 181.469717,525.907664 181.265755,526.236572 L181.265755,526.236572 L181.265755,548.506808 C181.265755,549.206306 181.112406,549.709519 180.804197,550.017965 C180.496743,550.326411 179.952844,550.481013 179.174767,550.481013 L179.174767,550.481013 L168.106432,550.481013 C167.3276,550.481013 166.784457,550.326411 166.477003,550.017965 C166.168794,549.709519 166.015444,549.206306 166.015444,548.506808 L166.015444,548.506808 L166.015444,526.729933 C166.015444,525.290773 165.809972,524.19113 165.400537,523.429488 C164.990347,522.669363 164.232666,521.960013 163.125228,521.30144 C162.838926,521.137744 162.664425,521.003604 162.603237,520.900537 C162.541293,520.798227 162.511076,520.664087 162.511076,520.499633 L162.511076,520.499633 L162.511076,519.759212 C162.511076,519.348456 162.756586,519.14232 163.248361,519.14232 L163.248361,519.14232 L172.963748,519.14232 C174.972396,519.14232 176.581429,519.503058 177.790848,520.221501 C179.000266,520.942218 179.829712,522.063081 180.28145,523.58409 C181.224207,521.89787 182.504635,520.613311 184.124999,519.72814 C185.743853,518.844484 187.578,518.401899 189.628195,518.401899 Z M302.940659,518.401899 C305.892064,518.401899 308.146221,519.286312 309.704642,521.05438 C311.262307,522.823207 312.041139,525.332455 312.041139,528.580608 L312.041139,528.580608 L312.041139,548.506808 C312.041139,549.206306 311.88779,549.709519 311.580336,550.017965 C311.272127,550.326411 310.728984,550.481013 309.950152,550.481013 L309.950152,550.481013 L298.881816,550.481013 C298.102984,550.481013 297.559841,550.326411 297.252387,550.017965 C296.944933,549.709519 296.790829,549.206306 296.790829,548.506808 L296.790829,548.506808 L296.790829,527.285439 C296.790829,526.833001 296.688848,526.46317 296.483375,526.175186 C296.278658,525.887202 295.992355,525.74321 295.622202,525.74321 C295.131183,525.74321 294.782181,525.907664 294.577464,526.236572 L294.577464,526.236572 L294.577464,548.506808 C294.577464,549.206306 294.424115,549.709519 294.115905,550.017965 C293.809207,550.326411 293.264553,550.481013 292.486476,550.481013 L292.486476,550.481013 L281.418896,550.481013 C280.639308,550.481013 280.096165,550.326411 279.789467,550.017965 C279.481258,549.709519 279.327909,549.206306 279.327909,548.506808 L279.327909,548.506808 L279.327909,526.729933 C279.327909,525.290773 279.122436,524.19113 278.713001,523.429488 C278.302811,522.669363 277.544375,521.960013 276.437692,521.30144 C276.15139,521.137744 275.976889,521.003604 275.914945,520.900537 C275.853757,520.798227 275.822785,520.664087 275.822785,520.499633 L275.822785,520.499633 L275.822785,519.759212 C275.822785,519.348456 276.06905,519.14232 276.560825,519.14232 L276.560825,519.14232 L286.276212,519.14232 C288.28486,519.14232 289.893893,519.503058 291.103312,520.221501 C292.311975,520.942218 293.142176,522.063081 293.593914,523.58409 C294.535916,521.89787 295.817099,520.613311 297.436708,519.72814 C299.055562,518.844484 300.889708,518.401899 302.940659,518.401899 Z M536.191153,518.401899 C539.172508,518.401899 541.624597,519.224945 543.545162,520.869523 C545.465727,522.514858 546.425633,524.611884 546.425633,527.162116 C546.425633,529.300825 545.649427,531.03862 544.096261,532.374745 C542.543848,533.711627 540.542727,534.380068 538.09139,534.380068 C535.679956,534.380068 533.709702,533.763162 532.176864,532.52935 C530.644778,531.29478 529.879112,529.73281 529.879112,527.84041 C529.879112,526.236757 530.430211,524.921095 531.533915,523.891908 C532.636866,522.864994 534.046234,522.350401 535.762018,522.350401 C535.884736,522.145018 535.945718,521.939635 535.945718,521.732737 C535.945718,521.157513 535.517337,520.869523 534.659068,520.869523 C532.86122,520.869523 531.308808,521.558427 530.00183,522.936234 C528.693346,524.314041 528.04061,525.969229 528.04061,527.901797 C528.04061,529.54789 528.500612,530.996937 529.41911,532.251212 C530.338361,533.506244 531.655879,534.502843 533.371664,535.243282 C533.943844,535.490348 534.321783,535.767728 534.505483,536.076181 C534.689935,536.384634 534.781785,536.90908 534.781785,537.649519 L534.781785,537.649519 L534.781785,548.506762 C534.781785,549.82394 534.086888,550.481013 532.697848,550.481013 L532.697848,550.481013 L520.256714,550.481013 C518.99039,550.481013 518.357982,549.82394 518.357982,548.506762 L518.357982,548.506762 L518.357982,526.73013 C518.357982,525.290935 518.152449,524.191266 517.744395,523.429607 C517.335588,522.669464 516.580462,521.95934 515.477511,521.300751 C515.192174,521.137809 515.017509,521.003666 514.955774,520.900596 C514.894792,520.798283 514.863924,520.66414 514.863924,520.498925 L514.863924,520.498925 L514.863924,519.759244 C514.863924,519.348478 515.109359,519.142338 515.600228,519.142338 L515.600228,519.142338 L519.951049,519.142338 C523.463929,519.142338 525.854283,520.190472 527.121359,522.288255 C528.305619,520.972593 529.633678,519.996457 531.10478,519.357573 C532.575883,518.720962 534.270588,518.401899 536.191153,518.401899 Z M672.413766,521.220081 C671.669869,521.220081 671.29754,521.771824 671.29754,522.874558 L671.29754,522.874558 L671.29754,546.525758 C671.29754,547.628492 671.669869,548.180236 672.413766,548.180236 C673.157663,548.180236 673.52923,547.628492 673.52923,546.525758 L673.52923,546.525758 L673.52923,522.874558 C673.52923,521.771824 673.157663,521.220081 672.413766,521.220081 Z M220.20136,521.220081 C219.458209,521.220081 219.085872,521.771824 219.085872,522.874558 L219.085872,522.874558 L219.085872,546.525758 C219.085872,547.628492 219.458209,548.180236 220.20136,548.180236 C220.945272,548.180236 221.317609,547.628492 221.317609,546.525758 L221.317609,546.525758 L221.317609,522.874558 C221.317609,521.771824 220.945272,521.220081 220.20136,521.220081 Z M130.690284,521.220081 C129.947133,521.220081 129.574796,521.771824 129.574796,522.874558 L129.574796,522.874558 L129.574796,546.525758 C129.574796,547.628492 129.947133,548.180236 130.690284,548.180236 C131.434196,548.180236 131.806533,547.628492 131.806533,546.525758 L131.806533,546.525758 L131.806533,522.874558 C131.806533,521.771824 131.434196,521.220081 130.690284,521.220081 Z M90.8862548,523.65732 C90.1016165,523.65732 89.7100577,524.149796 89.7100577,525.135503 L89.7100577,525.135503 L89.7100577,542.192862 C89.7100577,543.177814 90.1016165,543.670289 90.8862548,543.670289 C91.3393986,543.670289 91.6906611,543.506887 91.9385216,543.177814 L91.9385216,543.177814 L91.9385216,524.149796 C91.6906611,523.822235 91.3393986,523.65732 90.8862548,523.65732 Z M405.468533,523.65732 C404.683895,523.65732 404.292336,524.149796 404.292336,525.135503 L404.292336,525.135503 L404.292336,542.192862 C404.292336,543.177814 404.683895,543.670289 405.468533,543.670289 C405.921677,543.670289 406.27294,543.506887 406.5208,543.177814 L406.5208,543.177814 L406.5208,524.149796 C406.27294,523.822235 405.921677,523.65732 405.468533,523.65732 Z M494.609705,537.274083 C493.910048,537.274083 493.561734,537.682809 493.561734,538.498757 L493.561734,538.498757 L493.561734,542.420426 C493.561734,543.237879 493.910048,543.645853 494.609705,543.645853 C495.020109,543.645853 495.349493,543.483266 495.595585,543.155833 L495.595585,543.155833 L495.595585,537.76335 C495.349493,537.437423 495.020109,537.274083 494.609705,537.274083 Z M586.190401,537.274083 C585.490744,537.274083 585.14243,537.682809 585.14243,538.498757 L585.14243,538.498757 L585.14243,542.420426 C585.14243,543.237879 585.490744,543.645853 586.190401,543.645853 C586.600806,543.645853 586.930189,543.483266 587.176281,543.155833 L587.176281,543.155833 L587.176281,537.76335 C586.930189,537.437423 586.600806,537.274083 586.190401,537.274083 Z M369.01779,521.220768 C368.605849,521.220768 368.277204,521.384105 368.0311,521.710777 L368.0311,521.710777 L368.0311,531.882041 C368.277204,532.209467 368.605849,532.372051 369.01779,532.372051 C369.756862,532.372051 370.127155,531.964086 370.127155,531.146651 L370.127155,531.146651 L370.127155,522.446167 C370.127155,521.629486 369.756862,521.220768 369.01779,521.220768 Z M332.799056,521.220768 C332.387881,521.220768 332.059244,521.384105 331.812387,521.710777 L331.812387,521.710777 L331.812387,531.882041 C332.059244,532.209467 332.387881,532.372051 332.799056,532.372051 C333.538111,532.372051 333.908396,531.964086 333.908396,531.146651 L333.908396,531.146651 L333.908396,522.446167 C333.908396,521.629486 333.538111,521.220768 332.799056,521.220768 Z M556.48422,504.431962 C558.920242,504.431962 560.870886,504.975921 562.336912,506.063098 C563.802178,507.150275 564.53481,508.600338 564.53481,510.412546 C564.53481,512.184681 563.802178,513.613966 562.336912,514.701143 C560.870886,515.788319 558.920242,516.332278 556.48422,516.332278 C554.047437,516.332278 552.107444,515.798709 550.663481,514.731569 C549.217996,513.665171 548.495253,512.224755 548.495253,510.412546 C548.495253,508.600338 549.217996,507.150275 550.663481,506.063098 C552.107444,504.975921 554.047437,504.431962 556.48422,504.431962 Z M640.820485,504.431962 C643.257268,504.431962 645.207151,504.975921 646.673177,506.063098 C648.138442,507.150275 648.871835,508.600338 648.871835,510.412546 C648.871835,512.184681 648.138442,513.613966 646.673177,514.701143 C645.207151,515.788319 643.257268,516.332278 640.820485,516.332278 C638.384462,516.332278 636.444469,515.798709 634.999745,514.731569 C633.55426,513.665171 632.832278,512.224755 632.832278,510.412546 C632.832278,508.600338 633.55426,507.150275 634.999745,506.063098 C636.444469,504.975921 638.384462,504.431962 640.820485,504.431962 Z M503.826203,451.656646 C504.608813,451.656646 505.15588,451.811853 505.464365,452.121506 C505.77361,452.431159 505.928612,452.937104 505.928612,453.638579 L505.928612,453.638579 L505.928612,460.3277 L512.051964,460.3277 C512.546604,460.3277 512.794304,460.534642 512.794304,460.947006 L512.794304,460.947006 L512.794304,462.061606 C512.794304,462.474731 512.546604,462.680913 512.051964,462.680913 L512.051964,462.680913 L505.928612,462.680913 L505.928612,482.127446 C505.928612,482.953695 506.041824,483.510615 506.269009,483.798965 C506.495434,484.088837 506.917891,484.232632 507.537141,484.232632 C508.031781,484.232632 508.392693,484.068295 508.619118,483.737339 C508.844783,483.407904 509.041576,482.768056 509.206455,481.817793 C509.288516,481.157402 509.381213,480.744277 509.485308,480.579179 C509.587883,480.414842 509.7634,480.331152 510.0111,480.331152 L510.0111,480.331152 L511.00038,480.331152 C511.24732,480.331152 511.422837,480.476469 511.526172,480.764819 C511.627987,481.05393 511.681174,481.549224 511.681174,482.251459 C511.681174,485.554935 510.773195,488.093788 508.959515,489.868779 C507.144316,491.644531 504.567782,492.531646 501.228394,492.531646 C497.764395,492.531646 495.073889,491.582143 493.156875,489.683139 C491.239101,487.784135 490.280974,485.121269 490.280974,481.693779 L490.280974,481.693779 L490.280974,462.680913 L486.63158,462.680913 C486.13694,462.680913 485.889241,462.474731 485.889241,462.061606 L485.889241,462.061606 L485.889241,460.947006 C485.889241,460.534642 486.13694,460.3277 486.63158,460.3277 L486.63158,460.3277 L486.87852,460.3277 C488.816809,460.3277 490.239184,460.14206 491.146403,459.770019 C492.053623,459.39874 492.76405,458.758891 493.280725,457.849712 C493.79588,456.942816 494.279122,455.538344 494.733492,453.638579 C494.898372,452.854935 495.156709,452.328449 495.506984,452.05988 C495.857259,451.791311 496.382291,451.656646 497.084361,451.656646 L497.084361,451.656646 Z M409.079138,451.656646 C409.859046,451.656646 410.404224,451.811853 410.711644,452.121506 C411.019821,452.430398 411.174288,452.937104 411.174288,453.638579 L411.174288,453.638579 L411.174288,460.326939 L420.97462,460.326939 C424.508433,460.326939 426.912517,461.379912 428.186114,463.485859 C429.377933,462.164317 430.712862,461.184382 432.192415,460.543772 C433.67121,459.903923 435.376406,459.583619 437.308002,459.583619 C440.307238,459.583619 442.772654,460.410629 444.705008,462.061606 C446.635089,463.713344 447.601266,465.81853 447.601266,468.377925 C447.601266,470.525717 446.820601,472.270275 445.259272,473.611599 C443.697185,474.953684 441.683813,475.623965 439.219154,475.623965 C436.793869,475.623965 434.811541,475.004659 433.270656,473.766045 C431.730528,472.527432 430.959707,470.959384 430.959707,469.059619 C430.959707,467.448965 431.514728,466.128183 432.624014,465.095752 C433.7333,464.064842 435.15152,463.547485 436.87716,463.547485 C436.999825,463.341304 437.061915,463.135122 437.061915,462.928179 C437.061915,462.350717 436.630315,462.061606 435.767117,462.061606 C433.958186,462.061606 432.397614,462.75319 431.082372,464.135599 C429.76713,465.519528 429.110645,467.181157 429.110645,469.121245 C429.110645,470.772983 429.572532,472.22843 430.49782,473.487586 C431.422351,474.747502 432.747436,475.747979 434.473076,476.491299 C435.047785,476.739326 435.428652,477.017786 435.613407,477.327439 C435.798162,477.637092 435.890539,478.163579 435.890539,478.906138 L435.890539,478.906138 L435.890539,489.806392 C435.890539,491.128695 435.191651,491.788325 433.794632,491.788325 L433.794632,491.788325 L421.282797,491.788325 C420.008443,491.788325 419.372402,491.128695 419.372402,489.806392 L419.372402,489.806392 L419.372402,467.945019 C419.372402,466.500224 419.165689,465.396276 418.755291,464.631653 C418.381995,463.937786 417.705823,463.289568 416.757819,462.680913 L416.757819,462.680913 L411.174288,462.680913 L411.174288,482.126685 C411.174288,482.953695 411.287109,483.510615 411.51351,483.798965 C411.739153,484.088076 412.160151,484.232632 412.777263,484.232632 C413.270194,484.232632 413.62986,484.068295 413.855504,483.737339 C414.080389,483.407143 414.276502,482.768056 414.440813,481.817032 C414.522589,481.157402 414.614967,480.744277 414.718702,480.579179 C414.820923,480.414082 414.995834,480.331152 415.242679,480.331152 L415.242679,480.331152 L416.228542,480.331152 C416.47463,480.331152 416.649541,480.475708 416.752519,480.764819 C416.853983,481.05393 416.906986,481.549224 416.906986,482.250699 C416.906986,485.554935 416.002142,488.093788 414.194725,489.868779 C412.385794,491.644531 409.818157,492.531646 406.4903,492.531646 C403.038263,492.531646 400.357047,491.582143 398.446652,489.682378 C396.535501,487.784135 395.580682,485.121269 395.580682,481.693018 L395.580682,481.693018 L395.580682,462.680913 L391.94389,462.680913 C391.450958,462.680913 391.204114,462.474731 391.204114,462.061606 L391.204114,462.061606 L391.204114,460.946245 C391.204114,460.533881 391.450958,460.326939 391.94389,460.326939 L391.94389,460.326939 L392.189978,460.326939 C394.121574,460.326939 395.539036,460.141299 396.443123,459.769258 C397.34721,459.397979 398.055184,458.75813 398.570075,457.849712 C399.083451,456.942055 399.565025,455.537583 400.017825,453.638579 C400.182136,452.854935 400.439581,452.328449 400.788646,452.059119 C401.137712,451.791311 401.660931,451.656646 402.360576,451.656646 L402.360576,451.656646 Z M568.665927,459.417722 C573.031431,459.417722 576.429268,460.082373 578.860198,461.408665 C581.28961,462.736462 582.505455,464.585141 582.505455,466.953949 C582.505455,468.588103 581.865656,469.885039 580.589854,470.844757 C579.312535,471.805227 577.541895,472.284709 575.276417,472.284709 C573.052682,472.284709 571.239541,471.815765 569.840029,470.875618 C568.439759,469.936224 567.740004,468.710797 567.740004,467.199336 C567.740004,466.137249 568.110373,465.24904 568.851112,464.533956 C569.59261,463.819625 570.60126,463.421437 571.879339,463.33939 C572.043273,463.094004 572.125999,462.869693 572.125999,462.664954 C572.125999,462.135039 571.755629,461.868576 571.014131,461.868576 C569.695828,461.868576 568.51186,462.430858 567.461467,463.553163 C566.411834,464.676973 565.885879,465.973909 565.885879,467.44397 C565.885879,469.119523 566.513534,470.446568 567.770362,471.426609 C569.026431,472.407402 571.11659,473.20378 574.04084,473.816493 C577.500912,474.511253 579.972066,475.481509 581.455062,476.72726 C582.937299,477.973763 583.678797,479.739643 583.678797,482.027158 C583.678797,485.254066 582.226918,487.725245 579.32316,489.440692 C576.419402,491.156893 572.249708,492.014241 566.812562,492.014241 C561.870253,492.014241 557.925969,491.31948 554.981986,489.930713 C552.036485,488.542698 550.564873,486.704557 550.564873,484.417042 C550.564873,482.783641 551.21302,481.496491 552.510832,480.556344 C553.807884,479.617703 555.569416,479.147253 557.793152,479.147253 C560.016887,479.147253 561.829269,479.617703 563.22954,480.556344 C564.629051,481.496491 565.330324,482.721918 565.330324,484.232626 C565.330324,485.295466 564.959955,486.183675 564.218457,486.898006 C563.4762,487.613089 562.466791,488.011278 561.190989,488.092572 C561.026296,488.337958 560.944329,488.563021 560.944329,488.767008 C560.944329,489.298428 561.314699,489.563386 562.055438,489.563386 C563.373741,489.563386 564.557709,489.00261 565.608102,487.878799 C566.658494,486.755742 567.18369,485.458053 567.18369,483.987992 C567.18369,482.313191 566.606126,480.995932 565.454034,480.035462 C564.299665,479.076497 562.303616,478.269582 559.460574,477.615469 C554.065169,476.390041 551.367847,473.775846 551.367847,469.772884 C551.367847,466.586622 552.922185,464.065012 556.032378,462.205042 C559.141813,460.34733 563.353249,459.417722 568.665927,459.417722 Z M362.759651,459.417722 C365.512177,459.417722 367.989071,459.846762 370.187305,460.704842 C372.384783,461.562923 374.121108,462.788322 375.395523,464.381039 C376.669181,465.973757 377.306011,467.811856 377.306011,469.895335 C377.306011,472.550869 376.340544,474.746501 374.409612,476.482232 C372.477164,478.218716 370.033588,479.085829 367.075096,479.085829 C364.115847,479.085829 361.712404,478.10581 359.862495,476.145021 C359.616395,476.145021 359.400585,476.236851 359.215822,476.42051 C359.031058,476.60417 358.938676,476.839765 358.938676,477.125039 C358.938676,478.065164 359.739066,478.93303 361.342119,479.729389 C362.945172,480.525748 364.732231,480.923927 366.704054,480.923927 C370.608324,480.923927 373.813673,479.617236 376.320856,477.003102 C376.566956,476.757721 376.741118,476.60417 376.844101,476.543201 C376.946327,476.482232 377.100802,476.451371 377.306011,476.451371 L377.306011,476.451371 L378.04658,476.451371 C378.33357,476.451371 378.528935,476.553738 378.631918,476.757721 C378.734144,476.962456 378.786392,477.330527 378.786392,477.860429 C378.786392,480.394025 378.097314,482.731918 376.72143,484.876366 C375.344032,487.020814 373.391896,488.746761 370.865782,490.053451 C368.338153,491.360142 365.512177,492.014241 362.390123,492.014241 C359.061347,492.014241 356.061208,491.340572 353.390463,489.992483 C350.71896,488.644393 348.592663,486.725003 347.01157,484.232806 C345.428962,481.742114 344.637658,478.902169 344.637658,475.715981 C344.637658,472.571191 345.37747,469.772645 346.857095,467.321847 C348.33672,464.871049 350.441815,462.94112 353.174652,461.532062 C355.90749,460.123003 359.10148,459.417722 362.759651,459.417722 Z M270.907437,459.417722 C276.733739,459.417722 281.16514,460.806489 284.201639,463.584024 C287.2389,466.362312 288.757911,470.405921 288.757911,475.716357 C288.757911,481.026794 287.2389,485.070403 284.201639,487.847938 C281.16514,490.626226 276.733739,492.014241 270.907437,492.014241 C265.081134,492.014241 260.648972,490.626226 257.612473,487.847938 C254.575973,485.070403 253.056962,481.026794 253.056962,475.716357 C253.056962,470.405921 254.575973,466.362312 257.612473,463.584024 C260.648972,460.806489 265.081134,459.417722 270.907437,459.417722 Z M463.298907,459.935127 C464.080195,459.935127 464.627096,460.088971 464.93506,460.398174 C465.244541,460.70662 465.399282,461.210591 465.399282,461.909331 L465.399282,461.909331 L465.399282,483.1307 C465.399282,483.583896 465.500925,483.953727 465.707246,484.240953 C465.912808,484.529695 466.20105,484.672929 466.571972,484.672929 C467.065776,484.672929 467.415459,484.509233 467.621021,484.179567 L467.621021,484.179567 L467.621021,461.909331 C467.621021,461.210591 467.775762,460.70662 468.084484,460.398174 C468.393207,460.088971 468.938591,459.935127 469.720637,459.935127 L469.720637,459.935127 L480.834644,459.935127 C481.57573,459.935127 482.110495,460.088971 482.439697,460.398174 C482.769659,460.70662 482.93426,461.210591 482.93426,461.909331 L482.93426,461.909331 L482.93426,481.958303 C482.93426,482.658559 482.99646,483.1307 483.119342,483.377002 C483.242983,483.624062 483.448545,483.747592 483.736787,483.747592 C484.107709,483.747592 484.374712,483.583896 484.539313,483.25423 C484.703915,482.925322 484.848036,482.287969 484.971676,481.341412 C485.054356,480.642672 485.135519,480.221307 485.218958,480.077315 C485.300879,479.933323 485.466239,479.861327 485.712762,479.861327 L485.712762,479.861327 L486.76257,479.861327 C487.009851,479.861327 487.183555,480.005319 487.287474,480.293303 C487.389876,480.581286 487.441456,481.054944 487.441456,481.712002 C487.441456,484.919989 486.556249,487.439088 484.786595,489.268543 C483.016182,491.099513 480.566883,492.014241 477.439456,492.014241 C475.503683,492.014241 473.754509,491.561045 472.191175,490.656928 C470.625566,489.75281 469.432395,488.477346 468.609388,486.832049 C467.703701,488.477346 466.427092,489.75281 464.781078,490.656928 C463.134306,491.561045 461.281971,492.014241 459.224075,492.014241 C456.260491,492.014241 453.995516,491.129827 452.432182,489.361001 C450.867331,487.59369 450.086043,485.084443 450.086043,481.834774 L450.086043,481.834774 L450.086043,467.523498 C450.086043,466.084337 449.879722,464.983936 449.468598,464.223053 C449.056715,463.462169 448.29515,462.75282 447.183901,462.094247 C446.896417,461.930551 446.721196,461.796411 446.658997,461.693343 C446.597555,461.591033 446.566456,461.457651 446.566456,461.292439 L446.566456,461.292439 L446.566456,460.552018 C446.566456,460.141262 446.813737,459.935127 447.307541,459.935127 L447.307541,459.935127 Z M235.974472,459.417722 C240.339216,459.417722 243.737813,460.082373 246.167984,461.408665 C248.597395,462.736462 249.81324,464.585141 249.81324,466.953949 C249.81324,468.588103 249.174201,469.885039 247.89764,470.844757 C246.621079,471.805227 244.84968,472.284709 242.584962,472.284709 C240.361226,472.284709 238.548085,471.815765 237.147815,470.875618 C235.747544,469.936224 235.047789,468.710797 235.047789,467.199336 C235.047789,466.137249 235.418158,465.24904 236.159657,464.533956 C236.901155,463.819625 237.909805,463.421437 239.187124,463.33939 C239.351058,463.094004 239.433784,462.869693 239.433784,462.664954 C239.433784,462.135039 239.063415,461.868576 238.321917,461.868576 C237.003613,461.868576 235.819645,462.430858 234.769253,463.553163 C233.719619,464.676973 233.194423,465.973909 233.194423,467.44397 C233.194423,469.119523 233.821319,470.446568 235.078906,471.426609 C236.334216,472.407402 238.424375,473.20378 241.348625,473.816493 C244.808697,474.511253 247.28061,475.481509 248.762847,476.72726 C250.245844,477.973763 250.987342,479.739643 250.987342,482.027158 C250.987342,485.254066 249.535463,487.725245 246.630946,489.440692 C243.727946,491.156893 239.557494,492.014241 234.121106,492.014241 C229.178797,492.014241 225.234513,491.31948 222.29053,489.930713 C219.34503,488.542698 217.873418,486.704557 217.873418,484.417042 C217.873418,482.783641 218.521564,481.496491 219.818617,480.556344 C221.116428,479.617703 222.877202,479.147253 225.100937,479.147253 C227.325431,479.147253 229.137814,479.617703 230.537325,480.556344 C231.937595,481.496491 232.63811,482.721918 232.63811,484.232626 C232.63811,485.295466 232.26774,486.183675 231.526242,486.898006 C230.784744,487.613089 229.775335,488.011278 228.499533,488.092572 C228.334081,488.337958 228.252114,488.563021 228.252114,488.767008 C228.252114,489.298428 228.622484,489.563386 229.363982,489.563386 C230.681526,489.563386 231.866253,489.00261 232.916646,487.878799 C233.967038,486.755742 234.491476,485.458053 234.491476,483.987992 C234.491476,482.313191 233.913912,480.995932 232.761819,480.035462 C231.608209,479.076497 229.611401,478.269582 226.769118,477.615469 C221.372955,476.390041 218.675632,473.775846 218.675632,469.772884 C218.675632,466.586622 220.22997,464.065012 223.340923,462.205042 C226.450357,460.34733 230.661034,459.417722 235.974472,459.417722 Z M332.151451,459.417722 C335.043795,459.417722 337.243895,460.281673 338.753276,462.008817 C340.261133,463.73672 341.015823,466.265671 341.015823,469.596431 L341.015823,469.596431 L341.015823,489.522631 C341.015823,490.222129 340.861229,490.725342 340.550519,491.034546 C340.240571,491.342234 339.692259,491.496835 338.907869,491.496835 L338.907869,491.496835 L328.369623,491.496835 C327.584471,491.496835 327.036921,491.342234 326.726973,491.034546 C326.417024,490.725342 326.262431,490.222129 326.262431,489.522631 L326.262431,489.522631 L326.262431,468.301262 C326.262431,467.849582 326.158861,467.478992 325.951721,467.191009 C325.744581,466.903783 325.455956,466.759033 325.084322,466.759033 C324.587795,466.759033 324.236724,466.924245 324.030345,467.252395 L324.030345,467.252395 L324.030345,489.522631 C324.030345,490.222129 323.875752,490.725342 323.565803,491.034546 C323.255093,491.342234 322.707543,491.496835 321.922391,491.496835 L321.922391,491.496835 L311.384145,491.496835 C310.598232,491.496835 310.051443,491.342234 309.741495,491.034546 C309.431547,490.725342 309.276953,490.222129 309.276953,489.522631 L309.276953,489.522631 L309.276953,468.301262 C309.276953,467.849582 309.172622,467.478992 308.967005,467.191009 C308.759103,466.903783 308.470478,466.759033 308.098845,466.759033 C307.603079,466.759033 307.251246,466.924245 307.044868,467.252395 L307.044868,467.252395 L307.044868,489.522631 C307.044868,490.222129 306.890274,490.725342 306.580326,491.034546 C306.270377,491.342234 305.722066,491.496835 304.937675,491.496835 L304.937675,491.496835 L294.399429,491.496835 C293.613516,491.496835 293.065966,491.342234 292.756779,491.034546 C292.446069,490.725342 292.291476,490.222129 292.291476,489.522631 L292.291476,489.522631 L292.291476,467.746514 C292.291476,466.307353 292.084336,465.206952 291.671579,464.446069 C291.25806,463.685186 290.49347,462.975836 289.377808,462.317263 C289.089183,462.153567 288.913266,462.019427 288.85082,461.916359 C288.789135,461.814049 288.757911,461.680667 288.757911,461.515456 L288.757911,461.515456 L288.757911,460.775034 C288.757911,460.364279 289.006175,460.158143 289.50194,460.158143 L289.50194,460.158143 L298.676261,460.158143 C300.700445,460.158143 302.323295,460.51888 303.542527,461.238082 C304.760997,461.958041 305.597934,463.078904 306.052576,464.599913 C307.003744,462.955374 308.274,461.680667 309.865627,460.775034 C311.455731,459.870917 313.223274,459.417722 315.165211,459.417722 C317.066025,459.417722 318.699537,459.839845 320.062701,460.682576 C321.426626,461.526066 322.438718,462.749239 323.1005,464.353611 C323.96866,462.79092 325.197792,461.576842 326.788658,460.713648 C328.379523,459.849697 330.167628,459.417722 332.151451,459.417722 Z M527.388375,447 C528.166452,447 528.71035,447.154337 529.017804,447.46377 C529.326013,447.773204 529.479363,448.278789 529.479363,448.980526 L529.479363,448.980526 L529.479363,463.09054 C531.487255,460.574777 534.27549,459.315756 537.841803,459.315756 C540.793207,459.315756 543.04812,460.203001 544.605785,461.976731 C546.16345,463.751222 546.943038,466.268505 546.943038,469.52706 L546.943038,469.52706 L546.943038,489.516309 C546.943038,490.218807 546.788933,490.723632 546.48148,491.033065 C546.174026,491.342499 545.630883,491.496835 544.85205,491.496835 L544.85205,491.496835 L533.783715,491.496835 C533.004883,491.496835 532.46174,491.342499 532.154286,491.033065 C531.846077,490.723632 531.692727,490.218807 531.692727,489.516309 L531.692727,489.516309 L531.692727,468.226983 C531.692727,467.773857 531.589991,467.402081 531.385274,467.113175 C531.179801,466.825029 530.893499,466.680576 530.524101,466.680576 C530.032326,466.680576 529.683325,466.845557 529.479363,467.174757 L529.479363,467.174757 L529.479363,489.516309 C529.479363,490.218807 529.326013,490.723632 529.017804,491.033065 C528.71035,491.342499 528.166452,491.496835 527.388375,491.496835 L527.388375,491.496835 L516.32004,491.496835 C515.540452,491.496835 514.998064,491.342499 514.69061,491.033065 C514.382401,490.723632 514.229052,490.218807 514.229052,489.516309 L514.229052,489.516309 L514.229052,454.611911 C514.229052,453.168142 514.023579,452.064977 513.614145,451.300897 C513.203954,450.538337 512.446273,449.826716 511.338836,449.166034 C511.052533,449.001814 510.878033,448.867245 510.816844,448.763847 C510.7549,448.661209 510.724684,448.52664 510.724684,448.361659 L510.724684,448.361659 L510.724684,447.618867 C510.724684,447.206796 510.970193,447 511.461968,447 L511.461968,447 Z M270.907437,462.235903 C270.16354,462.235903 269.791211,462.787647 269.791211,463.890381 L269.791211,463.890381 L269.791211,487.541581 C269.791211,488.644315 270.16354,489.196059 270.907437,489.196059 C271.651333,489.196059 272.022901,488.644315 272.022901,487.541581 L272.022901,487.541581 L272.022901,463.890381 C272.022901,462.787647 271.651333,462.235903 270.907437,462.235903 Z M361.773739,462.236591 C361.362564,462.236591 361.033927,462.399927 360.787071,462.7266 L360.787071,462.7266 L360.787071,472.897864 C361.033927,473.22529 361.362564,473.387873 361.773739,473.387873 C362.512794,473.387873 362.883079,472.979909 362.883079,472.162474 L362.883079,472.162474 L362.883079,463.46199 C362.883079,462.645308 362.512794,462.236591 361.773739,462.236591 Z" />
        </g>
    </g>
</svg>