<?xml version="1.0" encoding="UTF-8"?>
<svg width="1600px" height="1200px" viewBox="0 0 1600 1200" version="1.1" xmlns="http://www.w3.org/2000/svg" xmlns:xlink="http://www.w3.org/1999/xlink">
    <!-- Generator: Sketch 64 (93537) - https://sketch.com -->
    <title>Artboard</title>
    <desc>Created with Sketch.</desc>
    <defs></defs>
    <g id="Artboard" stroke="none" stroke-width="1" fill="none" fill-rule="evenodd">
        <g id="Alienation" transform="translate(000.000000, 000.000000)" fill="#000" fill-rule="nonzero">
            <path d="M1325.5,641 C1336.76062,641 1345.32529,643.684101 1351.19399,649.052303 C1357.06417,654.421961 1360,662.237132 1360,672.500727 C1360,682.764323 1357.06417,690.579494 1351.19399,695.947697 C1345.32529,701.317354 1336.76062,704 1325.5,704 C1314.23938,704 1305.67324,701.317354 1299.80453,695.947697 C1293.93583,690.579494 1291,682.764323 1291,672.500727 C1291,662.237132 1293.93583,654.421961 1299.80453,649.052303 C1305.67324,643.684101 1314.23938,641 1325.5,641 Z M1230.62201,625 C1232.13261,625 1233.18856,625.299972 1233.78547,625.898446 C1234.38237,626.496919 1234.68009,627.47477 1234.68009,628.830526 L1234.68009,628.830526 L1234.68009,641.758734 L1276.22592,641.758734 C1277.73652,641.758734 1278.79247,642.057236 1279.38937,642.65571 C1279.98628,643.254183 1280.284,644.232034 1280.284,645.58779 L1280.284,645.58779 L1280.284,684.490051 C1280.284,685.847278 1280.40426,686.763369 1280.64185,687.242736 C1280.88091,687.720633 1281.27982,687.960316 1281.83713,687.960316 C1282.55283,687.960316 1283.04854,687.680931 1283.32866,687.122159 C1283.60731,686.564858 1283.90503,685.288506 1284.22475,683.293104 C1284.38315,681.935877 1284.54007,681.119777 1284.7014,680.83892 C1284.85979,680.559535 1285.17951,680.419842 1285.65615,680.419842 L1285.65615,680.419842 L1287.68593,680.419842 C1288.16404,680.419842 1288.50136,680.699228 1288.70081,681.257999 C1288.8988,681.816771 1289,682.774034 1289,684.129791 C1289,690.515961 1287.28848,695.422857 1283.8669,698.85342 C1280.44386,702.285454 1275.54835,704 1269.18184,704 C1263.05292,704 1258.33634,702.263397 1255.03502,698.793132 C1251.73078,695.321396 1250.08085,690.354211 1250.08085,683.890107 L1250.08085,683.890107 L1250.08085,656.480893 C1250.08085,653.688506 1249.68194,651.554881 1248.88704,650.077078 C1248.16401,648.737497 1246.85433,647.483201 1245.01668,646.30684 L1245.01668,646.30684 L1234.68009,646.30684 L1234.68009,683.890107 C1234.68009,685.488488 1234.90008,686.564858 1235.3386,687.122159 C1235.77418,687.680931 1236.59107,687.960316 1237.78488,687.960316 C1238.73964,687.960316 1239.43627,687.642699 1239.87332,687.003053 C1240.31037,686.364877 1240.68875,685.129698 1241.00847,683.293104 C1241.16686,682.016752 1241.34579,681.218297 1241.54524,680.899209 C1241.74323,680.580121 1242.08202,680.419842 1242.56013,680.419842 L1242.56013,680.419842 L1244.46964,680.419842 C1244.94775,680.419842 1245.28507,680.699228 1245.486,681.257999 C1245.68252,681.816771 1245.78372,682.774034 1245.78372,684.129791 C1245.78372,690.515961 1244.03113,695.422857 1240.53182,698.85342 C1237.02812,702.285454 1232.05341,704 1225.60771,704 C1218.92148,704 1213.72825,702.164877 1210.02802,698.49463 C1206.32633,694.824383 1204.47694,689.677804 1204.47694,683.05342 L1204.47694,683.05342 L1204.47694,646.30684 L1197.43287,646.30684 C1196.47958,646.30684 1196,645.908348 1196,645.109893 L1196,645.109893 L1196,642.954211 C1196,642.157227 1196.47958,641.758734 1197.43287,641.758734 L1197.43287,641.758734 L1197.91098,641.758734 C1201.65081,641.758734 1204.39628,641.398474 1206.1474,640.680893 C1207.89852,639.961843 1209.27126,638.726664 1210.26708,636.969474 C1211.26143,635.215226 1212.19566,632.502243 1213.07268,628.830526 C1213.38947,627.315961 1213.88811,626.298409 1214.56568,625.777869 C1215.24032,625.26027 1216.2552,625 1217.60888,625 L1217.60888,625 Z M1159.21132,641 C1169.37654,641 1177.09925,643.446969 1182.38089,648.342362 C1187.66254,653.237755 1190.30263,660.42009 1190.30263,669.895185 L1190.30263,669.895185 L1190.30263,684.697749 C1190.30263,686.040526 1190.4241,686.946865 1190.66118,687.421129 C1190.89972,687.895393 1191.29632,688.13107 1191.85244,688.13107 C1192.56661,688.13107 1193.08321,687.816834 1193.40225,687.183997 C1193.71836,686.55407 1193.99641,685.330585 1194.23496,683.513543 C1194.39301,682.17222 1194.55107,681.363353 1194.71058,681.085487 C1194.8701,680.81053 1195.18767,680.670869 1195.66476,680.670869 L1195.66476,680.670869 L1197.68874,680.670869 C1198.16729,680.670869 1198.50389,680.948736 1198.70292,681.500104 C1198.90048,682.052927 1199,682.962175 1199,684.223485 C1199,690.540215 1197.35068,695.415241 1194.05642,698.848563 C1190.75923,702.283339 1186.05419,704 1179.93837,704 C1171.91712,704 1166.19936,700.725251 1162.7851,694.171389 C1160.95723,697.566886 1158.7152,700.053135 1156.05462,701.63159 C1153.39258,703.210045 1150.11735,704 1146.22599,704 C1140.74678,704 1136.33882,702.657222 1133.00359,699.973121 C1129.66835,697.290475 1128,693.737859 1128,689.31673 C1128,685.448424 1129.3698,682.38753 1132.11087,680.138414 C1134.85048,677.887842 1139.07989,676.369034 1144.79765,675.579079 C1159.40888,673.684932 1166.71596,668.198892 1166.71596,659.118046 C1166.71596,655.488327 1165.44568,652.350329 1162.9051,649.704053 C1160.36306,647.059231 1157.34393,645.73682 1153.85064,645.73682 C1152.18376,645.73682 1151.34812,646.289643 1151.34812,647.393834 C1151.34812,647.790994 1151.46812,648.185244 1151.7052,648.579494 C1155.0419,648.579494 1157.78297,649.567302 1159.92695,651.538552 C1162.07093,653.514167 1163.14218,656.039695 1163.14218,659.118046 C1163.14218,662.750675 1161.61286,665.749013 1158.55568,668.118878 C1155.49704,670.487288 1151.58666,671.671493 1146.82309,671.671493 C1141.97755,671.671493 1138.12571,670.468375 1135.2661,668.059231 C1132.40796,665.651541 1130.97815,662.474264 1130.97815,658.525944 C1130.97815,653.237755 1133.55824,648.992657 1138.72134,645.796467 C1143.88298,642.598822 1150.71298,641 1159.21132,641 Z M1113.14886,642 C1114.66857,642 1115.73089,642.297345 1116.3314,642.893498 C1116.93043,643.489652 1117.23142,644.463712 1117.23142,645.814213 L1117.23142,645.814213 L1117.23142,684.565678 C1117.23142,685.917643 1117.35093,686.830183 1117.59143,687.307692 C1117.83193,687.783737 1118.23177,688.022491 1118.79244,688.022491 C1119.51394,688.022491 1120.01264,687.744188 1120.29297,687.187583 C1120.57331,686.632442 1120.8743,685.361038 1121.19595,683.37337 C1121.35382,682.021404 1121.51317,681.208467 1121.67547,680.9287 C1121.83481,680.650397 1122.15499,680.511246 1122.63598,680.511246 L1122.63598,680.511246 L1124.678,680.511246 C1125.15752,680.511246 1125.49835,680.789548 1125.69753,681.346154 C1125.89672,681.902759 1126,682.856313 1126,684.206813 C1126,690.568229 1124.27668,695.456105 1120.83446,698.87337 C1117.39224,702.2921 1112.4672,704 1106.06229,704 C1099.89492,704 1095.15136,702.270129 1091.82866,698.813315 C1088.50595,695.355037 1086.8446,690.407106 1086.8446,683.968059 L1086.8446,683.968059 L1086.8446,656.665092 C1086.8446,653.883529 1086.44328,651.758174 1085.64506,650.286099 C1084.84242,648.815489 1083.36254,647.444481 1081.19954,646.171612 C1080.64034,645.855226 1080.29952,645.59743 1080.18,645.396759 C1080.06049,645.200482 1080,644.941221 1080,644.621905 L1080,644.621905 L1080,643.190843 C1080,642.396948 1080.47952,642 1081.44004,642 L1081.44004,642 Z M741.024082,641 C746.34553,641 751.13132,641.829215 755.379989,643.487646 C759.628659,645.146077 762.984566,647.514432 765.447712,650.592712 C767.909393,653.670992 769.140234,657.223526 769.140234,661.250312 C769.140234,666.382718 767.274215,670.626264 763.540713,673.98095 C759.807211,677.33709 755.08289,679.012977 749.364822,679.012977 C743.646754,679.012977 739,677.118875 735.426024,673.329215 C734.948909,673.329215 734.531799,673.506697 734.174694,673.861659 C733.817589,674.216621 733.639037,674.671962 733.639037,675.223318 C733.639037,677.040318 735.187467,678.71766 738.284327,680.2568 C741.38265,681.795941 744.838079,682.565511 748.649148,682.565511 C756.195184,682.565511 762.388904,680.040041 767.234699,674.987646 C767.711815,674.513393 768.046966,674.216621 768.247472,674.098785 C768.445051,673.98095 768.74215,673.921304 769.140234,673.921304 L769.140234,673.921304 L770.570117,673.921304 C771.1248,673.921304 771.503858,674.119152 771.701437,674.513393 C771.899015,674.909089 772,675.620468 772,676.644622 C772,681.541357 770.668175,686.059853 768.008914,690.204475 C765.348191,694.349097 761.575173,697.68487 756.691325,700.21034 C751.807477,702.73581 746.34553,704 740.309872,704 C733.877594,704 728.079031,702.697986 722.915647,700.092505 C717.752262,697.487023 713.644093,693.777375 710.586748,688.960652 C707.52794,684.146839 706,678.658015 706,672.5 C706,666.421997 707.428419,661.013185 710.289649,656.276474 C713.147951,651.539764 717.216605,647.809749 722.5,645.086431 C727.781932,642.363114 733.955162,641 741.024082,641 Z M451.499264,641 C462.760125,641 471.324973,643.684101 477.195278,649.052303 C483.064112,654.421961 486,662.237132 486,672.500727 C486,682.764323 483.064112,690.579494 477.195278,695.947697 C471.324973,701.317354 462.760125,704 451.499264,704 C440.239875,704 431.673556,701.317354 425.804722,695.947697 C419.934417,690.579494 417,682.764323 417,672.500727 C417,662.237132 419.934417,654.421961 425.804722,649.052303 C431.673556,643.684101 440.239875,641 451.499264,641 Z M519.666177,625 C521.178702,625 522.236,625.298502 522.833668,625.896975 C523.431335,626.495449 523.729434,627.47477 523.729434,628.829055 L523.729434,628.829055 L523.729434,641.757264 L535.563836,641.757264 C536.51981,641.757264 537,642.157227 537,642.954211 L537,642.954211 L537,645.108423 C537,645.906878 536.51981,646.30537 535.563836,646.30537 L535.563836,646.30537 L523.729434,646.30537 L523.729434,683.890107 C523.729434,685.487017 523.949705,686.564858 524.388777,687.122159 C524.824913,687.680931 525.642851,687.958846 526.838186,687.958846 C527.79416,687.958846 528.491683,687.642699 528.929288,687.003053 C529.366892,686.364877 529.745757,685.128227 530.065883,683.291633 C530.224478,682.015282 530.403632,681.216826 530.603344,680.897738 C530.801587,680.580121 531.140804,680.418371 531.619525,680.418371 L531.619525,680.418371 L533.531473,680.418371 C534.010195,680.418371 534.347943,680.699228 534.549123,681.256529 C534.745898,681.816771 534.847223,682.774034 534.847223,684.129791 C534.847223,690.51449 533.092401,695.422857 529.588631,698.85195 C526.080455,702.283983 521.099404,704 514.645477,704 C507.950722,704 502.750868,702.164877 499.045918,698.49316 C495.339499,694.822913 493.487758,689.676333 493.487758,683.05195 L493.487758,683.05195 L493.487758,646.30537 L486.434695,646.30537 C485.48019,646.30537 485,645.906878 485,645.108423 L485,645.108423 L485,642.954211 C485,642.157227 485.48019,641.757264 486.434695,641.757264 L486.434695,641.757264 L486.913417,641.757264 C490.658016,641.757264 493.406992,641.398474 495.160346,640.679423 C496.913699,639.961843 498.288187,638.725193 499.285279,636.969474 C500.280901,635.215226 501.216317,632.500772 502.094462,628.829055 C502.411652,627.31449 502.910932,626.296938 503.589365,625.777869 C504.264861,625.258799 505.281043,625 506.636441,625 L506.636441,625 Z M278.499264,641 C289.760125,641 298.324973,643.684101 304.195278,649.052303 C310.064112,654.421961 313,662.237132 313,672.500727 C313,682.764323 310.064112,690.579494 304.195278,695.947697 C298.324973,701.317354 289.760125,704 278.499264,704 C267.239875,704 258.673556,701.317354 252.804722,695.947697 C246.934417,690.579494 244,682.764323 244,672.500727 C244,662.237132 246.934417,654.421961 252.804722,649.052303 C258.673556,643.684101 267.239875,641 278.499264,641 Z M982.211316,641 C992.376543,641 1000.09925,643.446969 1005.38089,648.342362 C1010.66254,653.237755 1013.30263,660.42009 1013.30263,669.895185 L1013.30263,669.895185 L1013.30263,684.697749 C1013.30263,686.040526 1013.4241,686.946865 1013.66118,687.421129 C1013.89972,687.895393 1014.29632,688.13107 1014.85244,688.13107 C1015.56661,688.13107 1016.08321,687.816834 1016.40225,687.183997 C1016.71836,686.55407 1016.99641,685.330585 1017.23496,683.513543 C1017.39301,682.17222 1017.55107,681.363353 1017.71058,681.085487 C1017.8701,680.81053 1018.18767,680.670869 1018.66476,680.670869 L1018.66476,680.670869 L1020.68874,680.670869 C1021.16729,680.670869 1021.50389,680.948736 1021.70292,681.500104 C1021.90048,682.052927 1022,682.962175 1022,684.223485 C1022,690.540215 1020.35068,695.415241 1017.05642,698.848563 C1013.75923,702.283339 1009.05419,704 1002.93837,704 C994.917118,704 989.199361,700.725251 985.785097,694.171389 C983.95723,697.566886 981.715201,700.053135 979.054622,701.63159 C976.39258,703.210045 973.117345,704 969.225992,704 C963.746779,704 959.338823,702.657222 956.003587,699.973121 C952.66835,697.290475 951,693.737859 951,689.31673 C951,685.448424 952.369803,682.38753 955.110873,680.138414 C957.850479,677.887842 962.079893,676.369034 967.79765,675.579079 C982.408884,673.684932 989.715964,668.198892 989.715964,659.118046 C989.715964,655.488327 988.445677,652.350329 985.905102,649.704053 C983.363063,647.059231 980.343935,645.73682 976.850644,645.73682 C975.183758,645.73682 974.348119,646.289643 974.348119,647.393834 C974.348119,647.790994 974.468123,648.185244 974.705205,648.579494 C978.041905,648.579494 980.782974,649.567302 982.92695,651.538552 C985.070927,653.514167 986.142183,656.039695 986.142183,659.118046 C986.142183,662.750675 984.612862,665.749013 981.555684,668.118878 C978.497042,670.487288 974.586664,671.671493 969.823086,671.671493 C964.977553,671.671493 961.125714,670.468375 958.266103,668.059231 C955.407956,665.651541 953.978151,662.474264 953.978151,658.525944 C953.978151,653.237755 956.55824,648.992657 961.721344,645.796467 C966.882985,642.598822 973.712975,641 982.211316,641 Z M229.200964,617 C230.714512,617 231.772527,617.298266 232.369129,617.891873 C232.967202,618.488404 233.266972,619.460692 233.266972,620.808736 L233.266972,620.808736 L233.266972,684.601035 C233.266972,685.950541 233.387468,686.861421 233.626991,687.338061 C233.865044,687.814702 234.263269,688.05156 234.821666,688.05156 C235.538764,688.05156 236.057485,687.735749 236.377829,687.099741 C236.695233,686.466658 236.975901,685.237043 237.213954,683.410897 C237.372656,682.061391 237.532828,681.249933 237.692999,680.970674 C237.851702,680.692878 238.170575,680.55398 238.65109,680.55398 L238.65109,680.55398 L240.68336,680.55398 C241.162405,680.55398 241.500382,680.833238 241.700229,681.387369 C241.898607,681.942962 242,682.856766 242,684.124395 C242,690.472775 240.343913,695.372227 237.034679,698.822751 C233.725445,702.274738 228.999647,704 222.860225,704 C214.885441,704 209.144243,700.708843 205.636631,694.122143 C202.12608,700.708843 196.703756,704 189.36672,704 C182.350026,704 176.868924,701.163552 172.920473,695.490656 C168.973491,689.819222 167,681.942962 167,671.866261 C167,662.02788 168.992594,654.370933 172.980721,648.895419 C176.967378,643.421367 182.549874,640.684341 189.728208,640.684341 C195.626638,640.684341 200.253982,642.349657 203.602892,645.683215 L203.602892,645.683215 L203.602892,631.638411 C203.602892,628.861908 203.203198,626.740421 202.406748,625.271024 C201.608829,623.804551 200.133486,622.436038 197.980721,621.165485 C197.422324,620.849674 197.082878,620.590885 196.962382,620.392041 C196.843355,620.194659 196.783107,619.93587 196.783107,619.618597 L196.783107,619.618597 L196.783107,618.190138 C196.783107,617.397688 197.263622,617 198.220243,617 L198.220243,617 Z M837.200964,617 C838.714512,617 839.772527,617.298266 840.369129,617.891873 C840.967202,618.488404 841.266972,619.460692 841.266972,620.808736 L841.266972,620.808736 L841.266972,684.601035 C841.266972,685.950541 841.387468,686.861421 841.626991,687.338061 C841.865044,687.814702 842.263269,688.05156 842.821666,688.05156 C843.538764,688.05156 844.057485,687.735749 844.377829,687.099741 C844.695233,686.466658 844.975901,685.237043 845.213954,683.410897 C845.372656,682.061391 845.532828,681.249933 845.692999,680.970674 C845.851702,680.692878 846.170575,680.55398 846.65109,680.55398 L846.65109,680.55398 L848.68336,680.55398 C849.162405,680.55398 849.500382,680.833238 849.700229,681.387369 C849.898607,681.942962 850,682.856766 850,684.124395 C850,690.472775 848.343913,695.372227 845.034679,698.822751 C841.725445,702.274738 836.999647,704 830.860225,704 C822.885441,704 817.144243,700.708843 813.636631,694.122143 C810.12608,700.708843 804.703756,704 797.36672,704 C790.350026,704 784.868924,701.163552 780.920473,695.490656 C776.973491,689.819222 775,681.942962 775,671.866261 C775,662.02788 776.992594,654.370933 780.980721,648.895419 C784.967378,643.421367 790.549874,640.684341 797.728208,640.684341 C803.626638,640.684341 808.253982,642.349657 811.602892,645.683215 L811.602892,645.683215 L811.602892,631.638411 C811.602892,628.861908 811.203198,626.740421 810.406748,625.271024 C809.608829,623.804551 808.133486,622.436038 805.980721,621.165485 C805.422324,620.849674 805.082878,620.590885 804.962382,620.392041 C804.843355,620.194659 804.783107,619.93587 804.783107,619.618597 L804.783107,619.618597 L804.783107,618.190138 C804.783107,617.397688 805.263622,617 806.220243,617 L806.220243,617 Z M671.024769,641 C676.344635,641 681.131783,641.829215 685.380358,643.487646 C689.62747,645.146077 692.983303,647.514432 695.446393,650.592712 C697.90802,653.670992 699.138834,657.223526 699.138834,661.250312 C699.138834,666.382718 697.272856,670.626264 693.540901,673.98095 C689.806018,677.33709 685.083265,679.012977 679.365324,679.012977 C673.645919,679.012977 669.000732,677.118875 665.425372,673.329215 C664.949731,673.329215 664.53263,673.506697 664.175533,673.861659 C663.818436,674.216621 663.639887,674.671962 663.639887,675.223318 C663.639887,677.040318 665.18682,678.71766 668.285074,680.2568 C671.383329,681.795941 674.837218,682.565511 678.648203,682.565511 C686.194071,682.565511 692.389117,680.040041 697.234805,674.987646 C697.710446,674.513393 698.047054,674.216621 698.246092,674.098785 C698.443666,673.98095 698.742222,673.921304 699.138834,673.921304 L699.138834,673.921304 L700.570149,673.921304 C701.12482,673.921304 701.502406,674.119152 701.701444,674.513393 C701.899018,674.909089 702,675.620468 702,676.644622 C702,681.541357 700.668204,686.059853 698.009003,690.204475 C695.346875,694.349097 691.573941,697.68487 686.691665,700.21034 C681.806462,702.73581 676.344635,704 670.310575,704 C663.876976,704 658.078542,702.697986 652.916735,700.092505 C647.753465,697.487023 643.643923,693.777375 640.58811,688.960652 C637.52937,684.146839 636,678.658015 636,672.5 C636,666.421997 637.429851,661.013185 640.289554,656.276474 C643.149256,651.539764 647.217819,647.809749 652.499634,645.086431 C657.781449,642.363114 663.954542,641 671.024769,641 Z M1413.41021,641 C1419.11434,641 1423.4709,642.709365 1426.48283,646.12663 C1429.4933,649.54536 1431,654.395152 1431,660.673077 L1431,660.673077 L1431,699.184322 C1431,700.536288 1430.70216,701.510348 1430.10795,702.106502 C1429.51374,702.702655 1428.46256,703 1426.95879,703 L1426.95879,703 L1405.56722,703 C1404.06199,703 1403.01226,702.702655 1402.41805,702.106502 C1401.82238,701.510348 1401.52601,700.536288 1401.52601,699.184322 L1401.52601,699.184322 L1401.52601,658.168352 C1401.52601,657.29536 1401.32745,656.579097 1400.9318,656.022491 C1400.53468,655.46735 1399.98135,655.189047 1399.26743,655.189047 C1398.31698,655.189047 1397.64247,655.506899 1397.24828,656.141136 L1397.24828,656.141136 L1397.24828,699.184322 C1397.24828,700.536288 1396.95044,701.510348 1396.35623,702.106502 C1395.76202,702.702655 1394.71084,703 1393.20707,703 L1393.20707,703 L1371.8155,703 C1370.30881,703 1369.26054,702.702655 1368.66487,702.106502 C1368.07066,701.510348 1367.77429,700.536288 1367.77429,699.184322 L1367.77429,699.184322 L1367.77429,657.096154 C1367.77429,654.314591 1367.37717,652.189236 1366.58587,650.717161 C1365.7931,649.246551 1364.32874,647.875543 1362.18842,646.602674 C1361.63509,646.286288 1361.29784,646.028492 1361.17958,645.827821 C1361.0584,645.631544 1361,645.372283 1361,645.052967 L1361,645.052967 L1361,643.62337 C1361,642.829475 1361.47595,642.431062 1362.4264,642.431062 L1362.4264,642.431062 L1381.20315,642.431062 C1385.08522,642.431062 1388.19497,643.126819 1390.53239,644.516868 C1392.86981,645.908382 1394.47287,648.07475 1395.34593,651.014506 C1397.16798,647.756899 1399.64264,645.27268 1402.77429,643.563315 C1405.90302,641.85395 1409.44784,641 1413.41021,641 Z M891.939852,642 C897.32179,642 901.296637,642.420415 903.870227,643.25977 C906.4409,644.1006 908.457487,645.562464 909.922902,647.643887 C911.385401,649.72531 912.789574,652.806878 914.136881,656.890066 L914.136881,656.890066 L925.530666,691.712227 C925.925818,692.113465 926.401166,692.312609 926.955254,692.312609 C928.142167,692.312609 928.735624,691.632569 928.735624,690.271015 C928.735624,689.551146 928.419211,688.229421 927.786385,686.308788 L927.786385,686.308788 L917.104165,653.286298 C916.548619,651.526456 916.074729,650.206205 915.678119,649.324071 C915.282967,648.444888 914.848446,647.685191 914.373098,647.042029 C913.661533,646.162846 913.20514,645.583116 913.008293,645.301364 C912.811446,645.022562 912.710836,644.68328 912.710836,644.280567 L912.710836,644.280567 L912.710836,643.200764 C912.710836,642.401238 913.187642,642 914.136881,642 L914.136881,642 L947.726237,642 C950.575412,642 952,643.041449 952,645.121397 C952,648.645507 946.776998,663.655059 936.332452,690.151528 C934.589994,694.554822 933.18582,697.53608 932.118473,699.096779 C931.049667,700.657477 929.862754,701.698926 928.557733,702.218176 C927.251253,702.740375 925.292992,703 922.681491,703 L922.681491,703 L904.877791,703 C902.107354,703 900.01203,702.539756 898.587442,701.619269 C897.162854,700.698781 896.01531,699.037773 895.14481,696.63477 L895.14481,696.63477 L878.883806,652.446943 C878.409915,651.086864 877.758134,649.965757 876.925545,649.085099 C876.095872,648.20444 874.849175,647.244124 873.186913,646.202675 C872.398068,645.721779 872,645.20253 872,644.641976 L872,644.641976 L872,643.200764 C872,642.401238 872.475349,642 873.424588,642 L873.424588,642 Z M392.409845,641 C398.114089,641 402.472208,642.709325 405.482741,646.126509 C408.493274,649.545158 410,654.394836 410,660.672612 L410,660.672612 L410,699.184413 C410,700.536346 409.702159,701.508918 409.109396,702.105058 C408.513714,702.701198 407.463969,703 405.958703,703 L405.958703,703 L384.566691,703 C383.061425,703 382.01168,702.701198 381.417458,702.105058 C380.821775,701.508918 380.525394,700.536346 380.525394,699.184413 L380.525394,699.184413 L380.525394,658.169411 C380.525394,657.294975 380.326833,656.580193 379.931171,656.023601 C379.534049,655.467008 378.980707,655.188712 378.266764,655.188712 C377.3163,655.188712 376.641777,655.506556 376.247575,656.142243 L376.247575,656.142243 L376.247575,699.184413 C376.247575,700.536346 375.951194,701.508918 375.355512,702.105058 C374.761289,702.701198 373.710084,703 372.206278,703 L372.206278,703 L350.814266,703 C349.309,703 348.259255,702.701198 347.665033,702.105058 C347.06935,701.508918 346.772969,700.536346 346.772969,699.184413 L346.772969,699.184413 L346.772969,657.095774 C346.772969,654.314276 346.375847,652.188972 345.584524,650.716932 C344.791741,649.247821 343.327354,647.876846 341.186985,646.604007 C340.633643,646.287628 340.296381,646.028373 340.178121,645.829171 C340.0584,645.631435 340,645.37218 340,645.054336 L340,645.054336 L340,643.623308 C340,642.829431 340.474502,642.431028 341.424966,642.431028 L341.424966,642.431028 L360.202107,642.431028 C364.084263,642.431028 367.194077,643.128234 369.531547,644.516785 C371.869017,645.909731 373.472103,648.076047 374.345187,651.015734 C376.167275,647.756739 378.641986,645.274044 381.773699,643.563255 C384.902492,641.855395 388.447388,641 392.409845,641 Z M611.411305,641 C617.115549,641 621.472208,642.709325 624.484201,646.126509 C627.494734,649.545158 629,654.394836 629,660.672612 L629,660.672612 L629,699.184413 C629,700.536346 628.703619,701.508918 628.109396,702.105058 C627.513714,702.701198 626.463969,703 624.958703,703 L624.958703,703 L603.566691,703 C602.061425,703 601.01168,702.701198 600.417458,702.105058 C599.823235,701.508918 599.525394,700.536346 599.525394,699.184413 L599.525394,699.184413 L599.525394,658.169411 C599.525394,657.294975 599.328293,656.580193 598.931171,656.023601 C598.535509,655.467008 597.982167,655.188712 597.266764,655.188712 C596.31776,655.188712 595.643237,655.506556 595.247575,656.142243 L595.247575,656.142243 L595.247575,699.184413 C595.247575,700.536346 594.951194,701.508918 594.355512,702.105058 C593.762749,702.701198 592.710084,703 591.206278,703 L591.206278,703 L569.815726,703 C568.309,703 567.259255,702.701198 566.666493,702.105058 C566.07081,701.508918 565.774429,700.536346 565.774429,699.184413 L565.774429,699.184413 L565.774429,657.095774 C565.774429,654.314276 565.377307,652.188972 564.585984,650.716932 C563.793201,649.247821 562.327354,647.876846 560.188445,646.604007 C559.635103,646.287628 559.297841,646.028373 559.178121,645.829171 C559.05986,645.631435 559,645.37218 559,645.054336 L559,645.054336 L559,643.623308 C559,642.829431 559.475962,642.431028 560.426426,642.431028 L560.426426,642.431028 L579.203567,642.431028 C583.085723,642.431028 586.195537,643.128234 588.533007,644.516785 C590.869017,645.909731 592.473563,648.076047 593.346647,651.015734 C595.167275,647.756739 597.643446,645.274044 600.773699,643.563255 C603.902492,641.855395 607.447388,641 611.411305,641 Z M1062.2196,641 C1067.98173,641 1072.72093,642.59072 1076.43285,645.769231 C1080.14477,648.949206 1082,653.002174 1082,657.931062 C1082,662.064591 1080.49981,665.423266 1077.49797,668.005623 C1074.49759,670.589444 1070.62998,671.881355 1065.89223,671.881355 C1061.2316,671.881355 1057.42364,670.689047 1054.46109,668.304432 C1051.5,665.918352 1050.02018,662.899499 1050.02018,659.242015 C1050.02018,656.142601 1051.0853,653.599792 1053.21845,651.61066 C1055.35015,649.625921 1058.07407,648.631355 1061.3902,648.631355 C1061.62738,648.234407 1061.74524,647.83746 1061.74524,647.437583 C1061.74524,646.325836 1060.9173,645.769231 1059.2585,645.769231 C1055.78377,645.769231 1052.78338,647.10069 1050.25736,649.763608 C1047.72842,652.426526 1046.46687,655.625543 1046.46687,659.36066 C1046.46687,662.5421 1047.35592,665.342705 1049.13112,667.766868 C1050.90778,670.192497 1053.45418,672.118645 1056.77031,673.549707 C1057.87617,674.027216 1058.60663,674.563315 1058.96167,675.159469 C1059.31816,675.755623 1059.49568,676.769231 1059.49568,678.200293 L1059.49568,678.200293 L1059.49568,699.184322 C1059.49568,701.73006 1058.15264,703 1055.46801,703 L1055.46801,703 L1031.42276,703 C1028.97531,703 1027.75304,701.73006 1027.75304,699.184322 L1027.75304,699.184322 L1027.75304,657.096154 C1027.75304,654.314591 1027.3558,652.189236 1026.56715,650.717161 C1025.77704,649.248015 1024.31759,647.875543 1022.18589,646.602674 C1021.63442,646.287753 1021.29684,646.028492 1021.17752,645.829286 C1021.05966,645.631544 1021,645.372283 1021,645.052967 L1021,645.052967 L1021,643.62337 C1021,642.829475 1021.47436,642.431062 1022.42307,642.431062 L1022.42307,642.431062 L1030.832,642.431062 C1037.62142,642.431062 1042.24131,644.456813 1044.69021,648.511246 C1046.97906,645.968437 1049.54582,644.081837 1052.38906,642.847052 C1055.23229,641.61666 1058.50768,641 1062.2196,641 Z M1325.5,646.446761 C1324.06225,646.446761 1323.34265,647.513128 1323.34265,649.644406 L1323.34265,649.644406 L1323.34265,695.355594 C1323.34265,697.486872 1324.06225,698.553239 1325.5,698.553239 C1326.93775,698.553239 1327.65588,697.486872 1327.65588,695.355594 L1327.65588,695.355594 L1327.65588,649.644406 C1327.65588,647.513128 1326.93775,646.446761 1325.5,646.446761 Z M451.499264,646.446761 C450.06296,646.446761 449.343336,647.513128 449.343336,649.644406 L449.343336,649.644406 L449.343336,695.355594 C449.343336,697.486872 450.06296,698.553239 451.499264,698.553239 C452.93704,698.553239 453.656664,697.486872 453.656664,695.355594 L453.656664,695.355594 L453.656664,649.644406 C453.656664,647.513128 452.93704,646.446761 451.499264,646.446761 Z M278.499264,646.446761 C277.06296,646.446761 276.343336,647.513128 276.343336,649.644406 L276.343336,649.644406 L276.343336,695.355594 C276.343336,697.486872 277.06296,698.553239 278.499264,698.553239 C279.93704,698.553239 280.656664,697.486872 280.656664,695.355594 L280.656664,695.355594 L280.656664,649.644406 C280.656664,647.513128 279.93704,646.446761 278.499264,646.446761 Z M201.569153,651.157267 C200.052666,651.157267 199.295891,652.109085 199.295891,654.014184 L199.295891,654.014184 L199.295891,686.981312 C199.295891,688.884949 200.052666,689.836767 201.569153,689.836767 C202.444954,689.836767 203.123846,689.520957 203.602892,688.884949 L203.602892,688.884949 L203.602892,652.109085 C203.123846,651.476002 202.444954,651.157267 201.569153,651.157267 Z M809.569153,651.157267 C808.052666,651.157267 807.295891,652.109085 807.295891,654.014184 L807.295891,654.014184 L807.295891,686.981312 C807.295891,688.884949 808.052666,689.836767 809.569153,689.836767 C810.444954,689.836767 811.123846,689.520957 811.602892,688.884949 L811.602892,688.884949 L811.602892,652.109085 C811.123846,651.476002 810.444954,651.157267 809.569153,651.157267 Z M981.854231,677.47468 C980.501989,677.47468 979.828795,678.264635 979.828795,679.841635 L979.828795,679.841635 L979.828795,687.421129 C979.828795,689.001039 980.501989,689.789539 981.854231,689.789539 C982.647429,689.789539 983.284036,689.475303 983.759662,688.842466 L983.759662,688.842466 L983.759662,678.420298 C983.284036,677.790371 982.647429,677.47468 981.854231,677.47468 Z M1158.85423,677.47468 C1157.50199,677.47468 1156.8288,678.264635 1156.8288,679.841635 L1156.8288,679.841635 L1156.8288,687.421129 C1156.8288,689.001039 1157.50199,689.789539 1158.85423,689.789539 C1159.64743,689.789539 1160.28404,689.475303 1160.75966,688.842466 L1160.75966,688.842466 L1160.75966,678.420298 C1160.28404,677.790371 1159.64743,677.47468 1158.85423,677.47468 Z M739.120011,646.44809 C738.323842,646.44809 737.688664,646.763774 737.213012,647.395142 L737.213012,647.395142 L737.213012,667.053364 C737.688664,667.686187 738.323842,668.000416 739.120011,668.000416 C740.54843,668.000416 741.264103,667.211934 741.264103,665.63206 L741.264103,665.63206 L741.264103,648.816446 C741.264103,647.238027 740.54843,646.44809 739.120011,646.44809 Z M669.119276,646.44809 C668.324589,646.44809 667.689425,646.763774 667.21232,647.395142 L667.21232,647.395142 L667.21232,667.053364 C667.689425,667.686187 668.324589,668.000416 669.119276,668.000416 C670.547664,668.000416 671.263321,667.211934 671.263321,665.63206 L671.263321,665.63206 L671.263321,648.816446 C671.263321,647.238027 670.547664,646.44809 669.119276,646.44809 Z M1101.44045,614 C1106.1486,614 1109.91865,615.051322 1112.75208,617.152532 C1115.58403,619.253742 1117,622.056311 1117,625.558805 C1117,628.983849 1115.58403,631.746258 1112.75208,633.847468 C1109.91865,635.948678 1106.1486,637 1101.44045,637 C1096.73083,637 1092.98136,635.968758 1090.19058,633.906273 C1087.39686,631.845223 1086,629.0613 1086,625.558805 C1086,622.056311 1087.39686,619.253742 1090.19058,617.152532 C1092.98136,615.051322 1096.73083,614 1101.44045,614 Z M1264.43898,614 C1269.1486,614 1272.91718,615.051322 1275.7506,617.152532 C1278.58255,619.253742 1280,622.056311 1280,625.558805 C1280,628.983849 1278.58255,631.746258 1275.7506,633.847468 C1272.91718,635.948678 1269.1486,637 1264.43898,637 C1259.73083,637 1255.98136,635.968758 1253.18911,633.906273 C1250.39539,631.845223 1249,629.0613 1249,625.558805 C1249,622.056311 1250.39539,619.253742 1253.18911,617.152532 C1255.98136,615.051322 1259.73083,614 1264.43898,614 Z M999.667156,512 C1001.17972,512 1002.23705,512.299972 1002.83327,512.898446 C1003.43095,513.496919 1003.73053,514.47477 1003.73053,515.830526 L1003.73053,515.830526 L1003.73053,528.758734 L1015.56526,528.758734 C1016.52127,528.758734 1017,529.158697 1017,529.955682 L1017,529.955682 L1017,532.109893 C1017,532.908348 1016.52127,533.30684 1015.56526,533.30684 L1015.56526,533.30684 L1003.73053,533.30684 L1003.73053,570.891577 C1003.73053,572.488488 1003.94934,573.564858 1004.38842,574.122159 C1004.82604,574.682401 1005.64253,574.960316 1006.83937,574.960316 C1007.79537,574.960316 1008.49291,574.642699 1008.93053,574.003053 C1009.36668,573.366347 1009.74702,572.129698 1010.06569,570.293104 C1010.22429,569.016752 1010.40345,568.218297 1010.60463,567.899209 C1010.80288,567.581591 1011.14211,567.419842 1011.62084,567.419842 L1011.62084,567.419842 L1013.53284,567.419842 C1014.01011,567.419842 1014.34934,567.700698 1014.54905,568.257999 C1014.74583,568.816771 1014.84863,569.774034 1014.84863,571.131261 C1014.84863,577.515961 1013.09376,582.422857 1009.58842,585.85342 C1006.08015,589.285454 1001.10042,591 994.646315,591 C987.95137,591 982.75137,589.164877 979.046315,585.49463 C975.339791,581.824383 973.487998,576.677804 973.487998,570.05342 L973.487998,570.05342 L973.487998,533.30684 L966.434736,533.30684 C965.478735,533.30684 965,532.908348 965,532.109893 L965,532.109893 L965,529.955682 C965,529.158697 965.478735,528.758734 966.434736,528.758734 L966.434736,528.758734 L966.912002,528.758734 C970.658176,528.758734 973.40723,528.399944 975.160633,527.680893 C976.914036,526.963313 978.287094,525.726664 979.285682,523.969474 C980.281333,522.216696 981.215306,519.502243 982.093476,515.830526 C982.412143,514.315961 982.911437,513.298409 983.588421,512.779339 C984.265405,512.26027 985.280147,512 986.637052,512 L986.637052,512 Z M816.547448,512 C818.054792,512 819.108469,512.299972 819.702626,512.898446 C820.298247,513.495449 820.596788,514.47477 820.596788,515.830526 L820.596788,515.830526 L820.596788,528.757264 L839.538103,528.757264 C846.367982,528.757264 851.014406,530.792369 853.475914,534.862578 C855.77937,532.308404 858.359416,530.414463 861.218979,529.176342 C864.077079,527.939693 867.372748,527.320633 871.105985,527.320633 C876.902674,527.320633 881.667638,528.919013 885.402339,532.109893 C889.132649,535.302243 891,539.370982 891,544.31758 C891,548.468664 889.491193,551.840409 886.473578,554.432815 C883.454499,557.026691 879.56321,558.322159 874.79971,558.322159 C870.112309,558.322159 866.281021,557.125212 863.302919,554.731317 C860.32628,552.337422 858.836497,549.306822 858.836497,545.635105 C858.836497,542.522159 859.9092,539.969456 862.05314,537.974053 C864.197081,535.981591 866.938106,534.981685 870.273288,534.981685 C870.510365,534.583192 870.630367,534.1847 870.630367,533.784737 C870.630367,532.668664 869.796206,532.109893 868.127883,532.109893 C864.631723,532.109893 861.615572,533.446533 859.073575,536.118343 C856.531578,538.793094 855.262775,542.00456 855.262775,545.754211 C855.262775,548.946561 856.155474,551.759535 857.943799,554.193132 C859.73066,556.628199 862.291681,558.561843 865.626863,559.998474 C866.737614,560.477841 867.473725,561.016026 867.830805,561.6145 C868.187884,562.212973 868.366424,563.230526 868.366424,564.665686 L868.366424,564.665686 L868.366424,585.732843 C868.366424,588.288488 867.015668,589.563369 864.31562,589.563369 L864.31562,589.563369 L840.133724,589.563369 C837.670753,589.563369 836.441462,588.288488 836.441462,585.732843 L836.441462,585.732843 L836.441462,543.480893 C836.441462,540.688506 836.041943,538.554881 835.248758,537.077078 C834.527282,535.736026 833.220429,534.483201 831.388201,533.30684 L831.388201,533.30684 L820.596788,533.30684 L820.596788,570.890107 C820.596788,572.488488 820.814841,573.564858 821.25241,574.122159 C821.688515,574.680931 822.502188,574.960316 823.694893,574.960316 C824.647593,574.960316 825.342727,574.642699 825.778832,574.003053 C826.213474,573.364877 826.592506,572.129698 826.910072,570.291633 C827.068124,569.016752 827.246664,568.218297 827.447155,567.899209 C827.64472,567.580121 827.982774,567.419842 828.459856,567.419842 L828.459856,567.419842 L830.365256,567.419842 C830.840874,567.419842 831.178929,567.699228 831.377957,568.257999 C831.574058,568.816771 831.676499,569.774034 831.676499,571.129791 C831.676499,577.515961 829.927687,582.422857 826.434454,585.85342 C822.938294,589.285454 817.975766,591 811.543944,591 C804.872117,591 799.690073,589.164877 795.997812,585.49316 C792.304087,581.824383 790.458688,576.677804 790.458688,570.05195 L790.458688,570.05195 L790.458688,533.30684 L783.429782,533.30684 C782.477082,533.30684 782,532.908348 782,532.109893 L782,532.109893 L782,529.954211 C782,529.157227 782.477082,528.757264 783.429782,528.757264 L783.429782,528.757264 L783.9054,528.757264 C787.638638,528.757264 790.378199,528.398474 792.125547,527.679423 C793.872895,526.961843 795.241213,525.725193 796.236352,523.969474 C797.228565,522.215226 798.159314,519.500772 799.034451,515.830526 C799.352018,514.315961 799.849588,513.298409 800.524234,512.777869 C801.19888,512.26027 802.210118,512 803.562337,512 L803.562337,512 Z M1124.9843,527 C1133.4216,527 1139.98868,528.284586 1144.68699,530.847939 C1149.38237,533.414202 1151.73225,536.987184 1151.73225,541.565431 C1151.73225,544.723796 1150.4957,547.230412 1148.02993,549.085279 C1145.56123,550.9416 1142.13908,551.868306 1137.76054,551.868306 C1133.46268,551.868306 1129.95838,550.961967 1127.25351,549.144926 C1124.54718,547.329338 1123.19475,544.960928 1123.19475,542.039695 C1123.19475,539.986976 1123.91057,538.270315 1125.34221,536.888258 C1126.77532,535.507655 1128.72476,534.738067 1131.19493,534.579494 C1131.51177,534.10523 1131.67166,533.671701 1131.67166,533.275996 C1131.67166,532.251818 1130.95583,531.73682 1129.52272,531.73682 C1126.97481,531.73682 1124.68653,532.823554 1122.65641,534.992657 C1120.62776,537.164669 1119.61124,539.671285 1119.61124,542.512504 C1119.61124,545.750883 1120.82432,548.315691 1123.25342,550.209837 C1125.68105,552.105438 1129.72075,553.644614 1135.37251,554.828819 C1142.05987,556.171597 1146.83592,558.046831 1149.70214,560.45452 C1152.56689,562.863665 1154,566.276619 1154,570.697749 C1154,576.934465 1151.19392,581.710565 1145.58177,585.026048 C1139.96961,588.342986 1131.91075,590 1121.40226,590 C1111.85015,590 1104.22695,588.657222 1098.53705,585.973121 C1092.84422,583.290475 1090,579.737859 1090,575.31673 C1090,572.15982 1091.25269,569.672116 1093.761,567.855074 C1096.26784,566.040942 1099.67239,565.131694 1103.97025,565.131694 C1108.26811,565.131694 1111.77094,566.040942 1114.47728,567.855074 C1117.18214,569.672116 1118.53751,572.040526 1118.53751,574.960305 C1118.53751,577.014479 1117.82169,578.73114 1116.38858,580.111742 C1114.954,581.4938 1113.00309,582.263388 1110.53732,582.420506 C1110.21902,582.89477 1110.0606,583.329754 1110.0606,583.724004 C1110.0606,584.751091 1110.77642,585.26318 1112.20806,585.26318 C1114.75598,585.26318 1117.04426,584.179356 1119.07437,582.007343 C1121.10449,579.836786 1122.11955,577.328715 1122.11955,574.487496 C1122.11955,571.250572 1121.00328,568.704676 1118.7766,566.848355 C1116.54553,564.994943 1112.68772,563.4354 1107.19291,562.171181 C1096.7651,559.802771 1091.55192,554.75026 1091.55192,547.013647 C1091.55192,540.85549 1094.55603,535.981919 1100.56717,532.387115 C1106.57684,528.796675 1114.71637,527 1124.9843,527 Z M727.024769,527 C732.344635,527 737.131783,527.829215 741.380358,529.487646 C745.62747,531.146077 748.983303,533.514432 751.446393,536.592712 C753.90802,539.670992 755.138834,543.223526 755.138834,547.250312 C755.138834,552.382718 753.272856,556.626264 749.540901,559.98095 C745.806018,563.33709 741.083265,565.012977 735.365324,565.012977 C729.645919,565.012977 725.000732,563.118875 721.425372,559.329215 C720.949731,559.329215 720.53263,559.506697 720.175533,559.861659 C719.818436,560.216621 719.639887,560.671962 719.639887,561.223318 C719.639887,563.040318 721.18682,564.71766 724.285074,566.2568 C727.383329,567.795941 730.837218,568.565511 734.648203,568.565511 C742.194071,568.565511 748.389117,566.040041 753.234805,560.987646 C753.710446,560.513393 754.047054,560.216621 754.246092,560.098785 C754.443666,559.98095 754.742222,559.921304 755.138834,559.921304 L755.138834,559.921304 L756.570149,559.921304 C757.12482,559.921304 757.502406,560.119152 757.701444,560.513393 C757.899018,560.909089 758,561.620468 758,562.644622 C758,567.541357 756.668204,572.059853 754.009003,576.204475 C751.346875,580.349097 747.573941,583.68487 742.691665,586.21034 C737.806462,588.73581 732.344635,590 726.310575,590 C719.876976,590 714.078542,588.697986 708.916735,586.092505 C703.753465,583.487023 699.643923,579.777375 696.58811,574.960652 C693.52937,570.146839 692,564.658015 692,558.5 C692,552.421997 693.429851,547.013185 696.289554,542.276474 C699.149256,537.539764 703.217819,533.809749 708.499634,531.086431 C713.781449,528.363114 719.954542,527 727.024769,527 Z M549.5,527 C560.760621,527 569.325286,529.684101 575.193994,535.052303 C581.064174,540.421961 584,548.237132 584,558.500727 C584,568.764323 581.064174,576.579494 575.193994,581.947697 C569.325286,587.317354 560.760621,590 549.5,590 C538.239379,590 529.673243,587.317354 523.804534,581.947697 C517.935826,576.579494 515,568.764323 515,558.500727 C515,548.237132 517.935826,540.421961 523.804534,535.052303 C529.673243,529.684101 538.239379,527 549.5,527 Z M921.339173,528 C922.849184,528 923.906193,528.297338 924.501401,528.894942 C925.099542,529.491082 925.398612,530.465118 925.398612,531.815587 L925.398612,531.815587 L925.398612,572.830589 C925.398612,573.70649 925.59506,574.421271 925.99382,574.976399 C926.391115,575.534456 926.948206,575.811288 927.665095,575.811288 C928.619482,575.811288 929.295322,575.494909 929.692616,574.857757 L929.692616,574.857757 L929.692616,531.815587 C929.692616,530.465118 929.991686,529.491082 930.588361,528.894942 C931.185035,528.297338 932.239111,528 933.750589,528 L933.750589,528 L955.230872,528 C956.663184,528 957.696736,528.297338 958.332993,528.894942 C958.970716,529.491082 959.288845,530.465118 959.288845,531.815587 L959.288845,531.815587 L959.288845,570.564672 C959.288845,571.91807 959.40906,572.830589 959.646557,573.306622 C959.88552,573.78412 960.282814,574.022868 960.839906,574.022868 C961.556795,574.022868 962.072838,573.70649 962.390966,573.069338 C962.709095,572.433651 962.987641,571.201824 963.226604,569.372392 C963.386401,568.021924 963.543266,567.207541 963.70453,566.929245 C963.862861,566.650949 964.182456,566.5118 964.658916,566.5118 L964.658916,566.5118 L966.687902,566.5118 C967.165828,566.5118 967.50155,566.790097 967.702396,567.346689 C967.90031,567.903281 968,568.818729 968,570.088639 C968,576.288785 966.289142,581.157504 962.868892,584.693331 C959.447176,588.232087 954.713363,590 948.668918,590 C944.927608,590 941.546941,589.124099 938.525451,587.376692 C935.499564,585.629285 933.193498,583.164166 931.602854,579.984266 C929.852413,583.164166 927.385084,585.629285 924.203797,587.376692 C921.021044,589.124099 917.440997,590 913.463655,590 C907.735873,590 903.358305,588.290675 900.336816,584.872026 C897.312394,581.456307 895.802383,576.606629 895.802383,570.325923 L895.802383,570.325923 L895.802383,542.66621 C895.802383,539.884713 895.403622,537.757944 894.609034,536.287368 C893.812979,534.816792 892.341084,533.445817 890.193349,532.172978 C889.637723,531.856599 889.29907,531.597345 889.178856,531.398143 C889.060107,531.200406 889,530.942616 889,530.623308 L889,530.623308 L889,529.19228 C889,528.398403 889.477926,528 890.432312,528 L890.432312,528 Z M481.9843,527 C490.420137,527 496.988678,528.284586 501.685522,530.847939 C506.380899,533.414202 508.730788,536.987184 508.730788,541.565431 C508.730788,544.723796 507.495703,547.230412 505.028466,549.085279 C502.561229,550.9416 499.137609,551.868306 494.760537,551.868306 C490.462676,551.868306 486.958378,550.961967 484.252046,549.144926 C481.545713,547.329338 480.19328,544.960928 480.19328,542.039695 C480.19328,539.986976 480.909101,538.270315 482.342211,536.888258 C483.77532,535.507655 485.72476,534.738067 488.193463,534.579494 C488.510302,534.10523 488.670189,533.671701 488.670189,533.275996 C488.670189,532.251818 487.954367,531.73682 486.521258,531.73682 C483.973345,531.73682 481.685063,532.823554 479.654947,534.992657 C477.626298,537.164669 476.61124,539.671285 476.61124,542.512504 C476.61124,545.750883 477.822855,548.315691 480.253421,550.209837 C482.679586,552.105438 486.719282,553.644614 492.371044,554.828819 C499.058399,556.171597 503.835919,558.046831 506.700672,560.45452 C509.566891,562.863665 511,566.276619 511,570.697749 C511,576.934465 508.193922,581.710565 502.580298,585.026048 C496.969609,588.342986 488.909285,590 478.40226,590 C468.850152,590 461.226949,588.657222 455.537049,585.973121 C449.844216,583.290475 447,579.737859 447,575.31673 C447,572.15982 448.252687,569.672116 450.759529,567.855074 C453.267837,566.040942 456.670922,565.131694 460.968784,565.131694 C465.268112,565.131694 468.770943,566.040942 471.475808,567.855074 C474.182141,569.672116 475.536041,572.040526 475.536041,574.960305 C475.536041,577.014479 474.82022,578.73114 473.38711,580.111742 C471.954001,581.4938 470.003094,582.263388 467.537324,582.420506 C467.217552,582.89477 467.059132,583.329754 467.059132,583.724004 C467.059132,584.751091 467.774954,585.26318 469.208063,585.26318 C471.754509,585.26318 474.044258,584.179356 476.074374,582.007343 C478.10449,579.836786 479.118081,577.328715 479.118081,574.487496 C479.118081,571.250572 478.001811,568.704676 475.775137,566.848355 C473.54553,564.994943 469.686255,563.4354 464.192913,562.171181 C453.763631,559.802771 448.550457,554.75026 448.550457,547.013647 C448.550457,540.85549 451.55456,535.981919 457.567166,532.387115 C463.576838,528.796675 471.714905,527 481.9843,527 Z M667.867635,527 C673.457732,527 677.709914,528.669777 680.627126,532.007867 C683.541394,535.347421 685,540.235182 685,546.672612 L685,546.672612 L685,585.184413 C685,586.536346 684.701214,587.508918 684.100698,588.106523 C683.501654,588.701198 682.44192,589 680.925912,589 L680.925912,589 L660.558415,589 C659.040935,589 657.982673,588.701198 657.383629,588.106523 C656.784585,587.508918 656.485799,586.536346 656.485799,585.184413 L656.485799,585.184413 L656.485799,544.169411 C656.485799,543.29644 656.285627,542.580193 655.885283,542.023601 C655.484939,541.468473 654.927107,541.188712 654.208843,541.188712 C653.249195,541.188712 652.570671,541.508021 652.171799,542.142243 L652.171799,542.142243 L652.171799,585.184413 C652.171799,586.536346 651.873013,587.508918 651.273969,588.106523 C650.673453,588.701198 649.615191,589 648.097711,589 L648.097711,589 L627.730214,589 C626.211262,589 625.154472,588.701198 624.555428,588.106523 C623.956384,587.508918 623.657598,586.536346 623.657598,585.184413 L623.657598,585.184413 L623.657598,544.169411 C623.657598,543.29644 623.455954,542.580193 623.058554,542.023601 C622.656738,541.468473 622.098906,541.188712 621.380641,541.188712 C620.422465,541.188712 619.74247,541.508021 619.343597,542.142243 L619.343597,542.142243 L619.343597,585.184413 C619.343597,586.536346 619.044811,587.508918 618.445767,588.106523 C617.846723,588.701198 616.786989,589 615.270981,589 L615.270981,589 L594.903484,589 C593.384532,589 592.32627,588.701198 591.728698,588.106523 C591.128182,587.508918 590.829396,586.536346 590.829396,585.184413 L590.829396,585.184413 L590.829396,543.097238 C590.829396,540.315741 590.429052,538.188972 589.631308,536.718396 C588.832092,535.247821 587.354352,533.876846 585.198088,532.604007 C584.640256,532.287628 584.300258,532.028373 584.179566,531.829171 C584.060346,531.631435 584,531.373645 584,531.054336 L584,531.054336 L584,529.623308 C584,528.829431 584.479824,528.431028 585.438,528.431028 L585.438,528.431028 L603.169409,528.431028 C607.081593,528.431028 610.218111,529.128234 612.574547,530.51825 C614.929511,531.909731 616.547077,534.076047 617.425773,537.015734 C619.264117,533.837298 621.719168,531.373645 624.79534,529.623308 C627.868568,527.875901 631.284738,527 635.037962,527 C638.711706,527 641.86883,527.815847 644.503446,529.444612 C647.139535,531.074842 649.095627,533.438895 650.374667,536.539701 C652.052579,533.519455 654.428149,531.172978 657.502849,529.504666 C660.577549,527.834889 664.033459,527 667.867635,527 Z M1045.20628,503 C1046.71008,503 1047.76129,503.29829 1048.35551,503.896338 C1048.95119,504.494387 1049.24758,505.471543 1049.24758,506.827806 L1049.24758,506.827806 L1049.24758,534.098536 C1053.12827,529.236267 1058.51716,526.802929 1065.40984,526.802929 C1071.11409,526.802929 1075.47221,528.517727 1078.48274,531.945854 C1081.49327,535.375451 1083,540.240658 1083,546.538538 L1083,546.538538 L1083,585.172194 C1083,586.529926 1082.70216,587.505613 1082.10794,588.103662 C1081.51371,588.70171 1080.46397,589 1078.9587,589 L1078.9587,589 L1057.56669,589 C1056.06142,589 1055.01168,588.70171 1054.41746,588.103662 C1053.82177,587.505613 1053.52539,586.529926 1053.52539,585.172194 L1053.52539,585.172194 L1053.52539,544.025851 C1053.52539,543.150085 1053.32683,542.431544 1052.93117,541.87317 C1052.53405,541.316264 1051.98071,541.037077 1051.26676,541.037077 C1050.3163,541.037077 1049.64178,541.355938 1049.24758,541.992192 L1049.24758,541.992192 L1049.24758,585.172194 C1049.24758,586.529926 1048.95119,587.505613 1048.35551,588.103662 C1047.76129,588.70171 1046.71008,589 1045.20628,589 L1045.20628,589 L1023.81427,589 C1022.30754,589 1021.25926,588.70171 1020.66503,588.103662 C1020.06935,587.505613 1019.77297,586.529926 1019.77297,585.172194 L1019.77297,585.172194 L1019.77297,517.711706 C1019.77297,514.921301 1019.37585,512.789191 1018.58452,511.312437 C1017.79174,509.838621 1016.32735,508.463256 1014.18699,507.186341 C1013.63364,506.868949 1013.29638,506.608864 1013.17812,506.409025 C1013.0584,506.210655 1013,505.95057 1013,505.631708 L1013,505.631708 L1013,504.196098 C1013,503.399679 1013.4745,503 1014.42497,503 L1014.42497,503 Z M549.5,532.446761 C548.062255,532.446761 547.342646,533.513128 547.342646,535.644406 L547.342646,535.644406 L547.342646,581.355594 C547.342646,583.486872 548.062255,584.553239 549.5,584.553239 C550.937745,584.553239 551.655882,583.486872 551.655882,581.355594 L551.655882,581.355594 L551.655882,535.644406 C551.655882,533.513128 550.937745,532.446761 549.5,532.446761 Z M725.119276,532.44809 C724.324589,532.44809 723.689425,532.763774 723.21232,533.395142 L723.21232,533.395142 L723.21232,553.053364 C723.689425,553.686187 724.324589,554.000416 725.119276,554.000416 C726.547664,554.000416 727.263321,553.211934 727.263321,551.63206 L727.263321,551.63206 L727.263321,534.816446 C727.263321,533.238027 726.547664,532.44809 725.119276,532.44809 Z" id="Combined-Shape"></path>
        </g>
    </g>
</svg>